<?xml version="1.0" standalone="no"?>
<!DOCTYPE svg PUBLIC "-//W3C//DTD SVG 1.1//EN" "http://www.w3.org/Graphics/SVG/1.1/DTD/svg11.dtd" >
<svg xmlns="http://www.w3.org/2000/svg">
<metadata></metadata>
<defs>
<font id="adriane_textregular" horiz-adv-x="1191" >
<font-face units-per-em="2048" ascent="1536" descent="-512" />
<missing-glyph horiz-adv-x="675" />
<glyph unicode="&#xfb01;" horiz-adv-x="1425" d="M72 0v72q98 0 135 34.5t37 110.5v715h-172v51l172 41v186q0 205 141 306.5t397 101.5q78 0 155 -14.5t138.5 -42t99 -68.5t37.5 -96q0 -37 -14 -63.5t-37.5 -45t-51.5 -27t-52 -8.5l-15 13l-49 217l-6 10q-68 41 -213 41q-160 0 -255 -61.5t-95 -165.5v-283h657l72 25 l16 -15v-813q0 -76 37 -112.5t140 -36.5l8 -17l-8 -55h-529v72q98 0 135 36.5t37 112.5v692l-565 19v-715q0 -37 9 -64.5t36 -46t75 -26.5t128 -8l8 -17l-8 -55h-600z" />
<glyph unicode="&#xfb02;" horiz-adv-x="1429" d="M72 0v72q98 0 135 34.5t37 110.5v715h-172v51l172 41v186q0 207 128 307.5t367 100.5q78 0 153 -13.5t134 -41.5l129 45l16 -15v-1370q0 -76 37 -113.5t142 -37.5l8 -17l-8 -55h-531v72q98 0 135 37.5t37 113.5v709h-567v-715q0 -37 9 -64.5t36 -46t75 -26.5t128 -8 l8 -17l-8 -55h-600zM424 1024h567v242l-55 217l-6 10q-35 23 -94.5 32t-122.5 9q-147 0 -218 -60.5t-71 -164.5v-285z" />
<glyph unicode="&#xfb03;" horiz-adv-x="2174" d="M72 0v72q98 0 135 37.5t37 113.5v709h-172v51l172 41v143q0 102 35.5 179t101 127.5t157 76t201.5 25.5q88 0 182.5 -27.5t159.5 -79.5q135 150 451 150q74 0 150.5 -14.5t139 -42t102.5 -68.5t40 -96q0 -37 -14.5 -63.5t-38 -45t-51 -27t-52.5 -8.5l-14 13l-49 217 l-6 10q-35 23 -92.5 32t-122.5 9q-160 0 -256.5 -61.5t-96.5 -165.5v-283h660l72 25l16 -15v-811q0 -76 37 -113.5t139 -37.5l8 -17l-8 -55h-528v72q98 0 135 37.5t37 113.5v690l-568 19v-709q0 -37 9.5 -65.5t36 -48t74.5 -28.5t128 -9l8 -17l-8 -55h-600v72q98 0 135 37.5 t37 113.5v709h-567v-709q0 -37 9 -65.5t36 -48t75 -28.5t128 -9l8 -17l-8 -55h-600zM424 1024h567v186q0 78 21 140q-47 72 -126 106.5t-184 34.5q-133 0 -205.5 -65.5t-72.5 -188.5v-213z" />
<glyph unicode="&#xfb04;" horiz-adv-x="2172" d="M72 0v72q98 0 135 36.5t37 112.5v711h-172v51l172 41v143q0 102 35.5 179t101 127.5t157 76t201.5 25.5q86 0 178.5 -25.5t155.5 -76.5q121 145 408 145q78 0 153.5 -13.5t134.5 -41.5l129 45l17 -15v-1370q0 -76 37 -113.5t141 -37.5l8 -17l-8 -55h-530v72 q98 0 135 37.5t37 113.5v709h-566v-711q0 -37 9.5 -65.5t36 -47t74.5 -27.5t128 -9l8 -17l-8 -55h-600v72q98 0 135 36.5t37 112.5v711h-565v-711q0 -37 9 -65.5t36 -47t75 -27.5t128 -9l8 -17l-8 -55h-600zM424 1024h565v186q0 76 19 142q-47 70 -126 104.5t-180 34.5 q-133 0 -205.5 -65.5t-72.5 -188.5v-213zM1169 1024h566v242l-56 217l-6 10q-35 23 -94 32t-125 9q-145 0 -215 -60.5t-70 -164.5v-285z" />
<glyph horiz-adv-x="0" />
<glyph unicode="&#xd;" horiz-adv-x="655" />
<glyph unicode=" "  horiz-adv-x="675" />
<glyph unicode="&#x09;" horiz-adv-x="675" />
<glyph unicode="&#xa0;" horiz-adv-x="675" />
<glyph unicode="!" horiz-adv-x="505" d="M123 111q0 55 41 95t94 40q55 0 95 -40t40 -95t-40 -95.5t-95 -40.5q-53 0 -94 40t-41 96zM137 1593q0 49 36 85t85 36t85 -36t36 -85l-86 -1114l-68 -12z" />
<glyph unicode="&#x22;" horiz-adv-x="679" d="M113 1341q0 51 27.5 77t62.5 26t61.5 -25.5t26.5 -77.5l-68 -391l-43 -6zM389 1341q0 51 27.5 77t62.5 26t61.5 -25.5t26.5 -77.5l-67 -391l-43 -6z" />
<glyph unicode="#" horiz-adv-x="1372" d="M113 328l26 110h277l78 336h-277l25 111h278l76 327h100l-75 -327h253l76 327h101l-76 -327h285l-25 -111h-287l-78 -336h287l-27 -110h-284l-76 -328h-100l75 328h-253l-76 -328h-101l76 328h-278zM516 438h254l78 336h-254z" />
<glyph unicode="$" horiz-adv-x="1110" d="M72 389l20 19l80 6q0 -86 30.5 -150.5t80 -109.5t113 -69t128.5 -26v572q-76 35 -149.5 73.5t-133 90t-96 120t-36.5 164.5q0 92 36.5 163t97 119t134.5 73.5t147 29.5v250h82v-254q33 -2 69 -6t66.5 -8t53 -7t32.5 -3h29.5t37 3t38 8t31.5 15l20 -18l-72 -326l-14 -10 h-35q0 41 -15.5 84t-47 80t-79.5 64.5t-114 35.5v-547q76 -35 154 -73.5t139.5 -89t100 -116t38.5 -157.5q0 -90 -36.5 -162.5t-97 -127t-138.5 -87t-160 -41.5v-266h-82v264q-31 0 -78 4t-103 15.5t-119.5 32t-129.5 55.5zM274 1157q0 -55 19.5 -98t53.5 -78t79 -63.5 t98 -53.5v510q-49 -4 -95 -18.5t-80 -41t-54.5 -65.5t-20.5 -92zM606 61q53 6 99.5 22.5t80 46.5t52 73t18.5 104q0 51 -19.5 93t-53 76t-80 61.5t-97.5 52.5v-529z" />
<glyph unicode="%" horiz-adv-x="1675" d="M113 1075q0 74 22.5 139.5t66.5 114.5t107.5 77t143.5 28t143 -28t107.5 -77t67 -114.5t22.5 -139.5q0 -76 -22.5 -141.5t-67 -113.5t-107.5 -75.5t-143 -27.5t-143.5 27.5t-107.5 75.5t-66.5 113.5t-22.5 141.5zM260 1075q0 -145 49.5 -223t143.5 -78t145 78t51 223 q0 141 -51 220t-145 79t-143.5 -78.5t-49.5 -220.5zM350 -12l893 1444l72 -54l-893 -1446zM883 334q0 74 22.5 139.5t66.5 114.5t107.5 76.5t143.5 27.5t143.5 -27.5t107.5 -76.5t66.5 -114.5t22.5 -139.5q0 -76 -22.5 -141.5t-66.5 -113.5t-107.5 -76t-143.5 -28t-143.5 28 t-107.5 76t-66.5 113.5t-22.5 141.5zM1030 334q0 -145 49.5 -223t143.5 -78t145 77.5t51 223.5q0 141 -51 220t-145 79t-143.5 -79t-49.5 -220z" />
<glyph unicode="&#x26;" horiz-adv-x="1445" d="M82 264q0 76 25.5 138.5t68.5 108.5t97.5 78t111.5 50l-20 25q-29 39 -55.5 75.5t-47 78.5t-33 89t-12.5 107q0 94 34 174t95.5 136t147.5 88t190 32q57 0 108.5 -14.5t90.5 -41t61.5 -67.5t22.5 -92q0 -70 -48.5 -103.5t-105.5 -33.5l-14 12l-58 258l-14 10 q-88 0 -151.5 -22.5t-105.5 -61.5t-61.5 -89t-19.5 -107q0 -88 30 -150.5t85 -126.5l430 -502q29 47 51.5 105.5t37.5 121t22.5 125t7.5 117.5l-172 41v64h497v-64l-194 -41q-10 -47 -25.5 -108.5t-41 -129t-62.5 -137t-88 -131.5l69 -79q78 -88 187 -88q59 0 100 12t70 22 l12 -18l-12 -41q-47 -45 -114 -77t-159 -32q-102 0 -163.5 31t-114.5 94l-25 29q-88 -70 -193.5 -112t-244.5 -42q-57 0 -110.5 17.5t-95.5 53.5t-66.5 90t-24.5 128zM252 348q0 -66 26.5 -109.5t68.5 -70.5t93.5 -38t100.5 -11q66 0 126 17.5t109 41.5l-358 420 q-86 -41 -126 -105.5t-40 -144.5z" />
<glyph unicode="'" horiz-adv-x="403" d="M113 1341q0 51 27.5 77t62.5 26t61.5 -25.5t26.5 -77.5l-68 -391l-43 -6z" />
<glyph unicode="(" horiz-adv-x="632" d="M113 539q0 156 30.5 297t81.5 267t117 238.5t135 212.5l33 -16q-49 -94 -93 -199.5t-77 -228.5t-52.5 -265.5t-19.5 -307.5q0 -156 19.5 -297.5t52.5 -268.5t77 -236.5t93 -201.5l-33 -16q-70 100 -135.5 211.5t-116.5 238.5t-81.5 269.5t-30.5 302.5z" />
<glyph unicode=")" horiz-adv-x="632" d="M123 -467q49 92 93 201.5t77 236.5t52.5 268.5t19.5 297.5q0 166 -19.5 308t-52.5 265t-77 228.5t-93 199.5l33 16q70 -100 135 -212.5t116.5 -238.5t82 -267.5t30.5 -296.5q0 -160 -30.5 -302.5t-82 -269.5t-117 -238.5t-134.5 -211.5z" />
<glyph unicode="*" horiz-adv-x="839" d="M113 946l237 123l17 -16l12 -21l-195 -180q-33 10 -51 37q-8 12 -12 26.5t-8 30.5zM113 1225q4 35 20 57q20 29 51 39l193 -178l-10 -23l-17 -16zM360 758l37 264l23 4l24 -4l37 -260q-27 -20 -61 -21q-27 0 -60 17zM360 1417q33 16 60 17q35 0 61 -21l-37 -260l-24 -4 l-23 4zM465 1032l10 21l17 18l235 -119q0 -35 -18 -61q-16 -23 -47 -39zM467 1139l195 182q16 -6 26 -16.5t21 -22.5q18 -27 18 -61l-233 -121l-19 18z" />
<glyph unicode="+" horiz-adv-x="1304" d="M113 479v121h477v479h125v-479h477v-121h-477v-479h-125v479h-477z" />
<glyph unicode="," horiz-adv-x="548" d="M133 111q0 55 41 95t94 40q41 0 69 -18.5t45 -49.5t25.5 -69.5t8.5 -81.5q0 -133 -60.5 -258t-179.5 -211l-39 47v8q88 66 136.5 165t37.5 206q-18 -8 -43 -9q-53 0 -94 40t-41 96z" />
<glyph unicode="-" horiz-adv-x="876" d="M113 475v121h651v-121h-651z" />
<glyph unicode="." horiz-adv-x="536" d="M133 111q0 55 41 95t94 40q55 0 95 -40t40 -95t-40 -95.5t-95 -40.5q-53 0 -94 40t-41 96z" />
<glyph unicode="/" horiz-adv-x="727" d="M41 -483l547 2035h98l-547 -2035h-98z" />
<glyph unicode="0" horiz-adv-x="1249" d="M82 717q0 166 38 303t108.5 236.5t171 153.5t225.5 54t225 -54t171 -153.5t108.5 -236.5t37.5 -303t-37.5 -304.5t-108.5 -236.5t-171 -152.5t-225 -54.5t-225.5 54.5t-171 152.5t-108.5 236.5t-38 304.5zM276 717q0 -129 20.5 -249t62.5 -211t108 -145.5t158 -54.5 q90 0 155.5 54.5t108.5 145.5t63.5 211t20.5 251q0 129 -20.5 247.5t-63.5 210t-108.5 145.5t-155.5 54q-92 0 -158 -54t-108 -145.5t-62.5 -211t-20.5 -248.5z" />
<glyph unicode="1" horiz-adv-x="864" d="M92 0v76q76 0 123 9t73.5 27.5t37 46t10.5 62.5v914q0 35 -9.5 62.5t-35 46t-68.5 27.5t-110 9v76l381 78h22v-1213q0 -35 9.5 -62.5t36 -46t74.5 -27.5t128 -9l8 -17l-8 -59h-672z" />
<glyph unicode="2" horiz-adv-x="1263" d="M92 0v104q100 59 231.5 140.5t254.5 185.5q61 51 113 110.5t92 128t62.5 147.5t22.5 171q0 86 -21.5 159t-63.5 126t-101 82.5t-135 29.5q-53 0 -95 -9t-83 -32l-15 -16l-45 -254l-16 -12q-25 0 -53.5 9t-53 28.5t-41 48.5t-16.5 65q0 70 43 118t107.5 78t139.5 43 t140 13q133 0 228.5 -39t156 -104.5t89 -153.5t28.5 -186q0 -117 -33 -208t-87 -163.5t-126 -131t-147.5 -110t-150.5 -98.5t-138 -96v-14h477q43 0 80 6t67.5 26.5t58.5 61.5t52 108h51l6 -14l-41 -348h-1038z" />
<glyph unicode="3" horiz-adv-x="1165" d="M82 217q0 37 15.5 65.5t40 48t54 31t56.5 11.5l16 -13l43 -245l12 -17q20 -14 47 -23t50.5 -13.5t43 -6.5t25.5 -2q98 0 174 26.5t128.5 73t79 108t26.5 130.5q0 143 -119 229.5t-325 86.5q-23 0 -48.5 -3.5t-52.5 -9.5l-4 82q250 29 363.5 113t113.5 217 q0 53 -18.5 103.5t-54 89t-90 62t-123.5 23.5q-35 0 -84.5 -10t-88.5 -35l-14 -16l-43 -250l-16 -12q-23 0 -51.5 9t-53 28.5t-42 48.5t-17.5 65q0 66 40 114t100.5 79t134 45t141.5 14q238 0 354.5 -99t116.5 -261q0 -43 -12.5 -93t-47 -93.5t-97 -76t-163.5 -40.5v-13 q115 -10 190.5 -43.5t120 -83t62.5 -107.5t18 -120q0 -90 -36.5 -174t-110.5 -148.5t-182.5 -103.5t-251.5 -39q-74 0 -148.5 12.5t-135 42t-98.5 76.5t-38 117z" />
<glyph unicode="4" horiz-adv-x="1277" d="M72 373v82l751 979h105v-922h268l-25 -139h-243v-152q0 -35 9 -62.5t35.5 -46t75 -27.5t128.5 -9l8 -17l-8 -59h-672v76q76 0 123 9t73.5 27.5t37 46t10.5 62.5v152h-676zM217 512h531v688z" />
<glyph unicode="5" horiz-adv-x="1157" d="M82 217q0 37 15.5 66.5t40 49t53 30t55.5 10.5l16 -13l43 -249l14 -17q41 -23 81 -31t94 -8q92 0 164.5 31t122.5 83t76 119.5t26 143.5q0 74 -24.5 143.5t-80 124t-142.5 86t-212 31.5h-28.5t-36 -1t-52.5 -4t-78 -7l21 629h479q98 0 167 29.5t103 99.5h33l8 -19 l-43 -268h-641l-22 -375q113 18 227 19q133 0 230.5 -36t160 -96.5t93 -138.5t30.5 -162q0 -100 -37 -193t-107.5 -166t-175 -116t-241.5 -43q-78 0 -155.5 13.5t-139 43t-99.5 77t-38 114.5z" />
<glyph unicode="6" horiz-adv-x="1144" d="M82 535q0 178 58.5 330.5t168 274.5t266 209t355.5 130l18 -72q-139 -45 -257 -120t-205 -170t-142 -208.5t-68 -236.5q41 43 89.5 71.5t97.5 45t95 23.5t83 7q80 0 155.5 -28.5t135 -82t95.5 -129t36 -167.5q0 -86 -28.5 -166t-87 -141.5t-147.5 -98.5t-210 -37 q-135 0 -231.5 52.5t-158 133.5t-90 181t-28.5 199zM268 510q0 -78 20.5 -160t61.5 -147.5t105.5 -107.5t154.5 -42q121 0 191.5 87t70.5 247q0 152 -77.5 236t-204.5 84q-76 0 -160 -32t-158 -100q-2 -12 -3 -29.5t-1 -35.5z" />
<glyph unicode="7" horiz-adv-x="1042" d="M51 1081l41 353h897l2 -37l-434 -1397l-213 16l-10 25l545 1221v14h-478q-43 0 -84 -4t-78.5 -24.5t-72.5 -63.5t-64 -121h-43z" />
<glyph unicode="8" horiz-adv-x="1181" d="M82 348q0 98 38 171t92 122t115.5 78t110.5 41q-51 20 -100 51t-88 72t-62.5 92t-23.5 117q0 92 38 161.5t98 116.5t138 70.5t158 23.5q61 0 134 -16t135.5 -53t103.5 -97.5t41 -148.5q0 -74 -24.5 -130t-62.5 -98t-83 -69t-86 -41q70 -31 133 -67.5t110 -86t75 -114 t28 -148.5q0 -98 -43 -177t-114 -134t-165 -85t-194 -30q-55 0 -140.5 14.5t-166 56.5t-138 115.5t-57.5 192.5zM254 365q0 -66 23.5 -123.5t68.5 -99.5t107.5 -66.5t140.5 -24.5q156 0 244 71t88 193q0 92 -41 158t-104.5 113t-140.5 79.5t-151 61.5q-125 -72 -180 -168 t-55 -194zM326 1167q0 -72 35.5 -124t91 -90t122 -65t127.5 -50q96 70 130 145.5t34 161.5q0 51 -20.5 95t-57 76t-87 49t-107.5 17q-133 0 -200.5 -64.5t-67.5 -150.5z" />
<glyph unicode="9" horiz-adv-x="1124" d="M61 1022q0 86 30 166t90.5 141.5t149.5 98t210 36.5q137 0 232 -52t154.5 -134t87 -182.5t27.5 -196.5q0 -178 -58 -330.5t-167.5 -274.5t-266.5 -209t-355 -130l-19 72q139 45 257 119.5t206 170t142.5 209t66.5 236.5q-41 -43 -89 -71.5t-97.5 -45t-95.5 -24t-83 -7.5 q-80 0 -155.5 29t-135 82t-95.5 129t-36 168zM252 1047q0 -152 77 -236t206 -84q76 0 159.5 31.5t157.5 99.5q2 12 3 29.5t1 36.5q0 78 -19.5 158.5t-60.5 147t-104.5 108.5t-153.5 42q-121 0 -193.5 -88t-72.5 -245z" />
<glyph unicode=":" horiz-adv-x="536" d="M133 111q0 55 41 95t94 40q55 0 95 -40t40 -95t-40 -95.5t-95 -40.5q-53 0 -94 40t-41 96zM133 913q0 55 41 95.5t94 40.5q55 0 95 -40t40 -96q0 -55 -40 -95t-95 -40q-53 0 -94 40t-41 95z" />
<glyph unicode=";" horiz-adv-x="548" d="M133 111q0 55 41 95t94 40q41 0 69 -18.5t45 -49.5t25.5 -69.5t8.5 -81.5q0 -133 -60.5 -258t-179.5 -211l-39 47v8q88 66 136.5 165t37.5 206q-18 -8 -43 -9q-53 0 -94 40t-41 96zM133 913q0 55 41 95.5t94 40.5q55 0 95 -40t40 -96q0 -55 -40 -95t-95 -40q-53 0 -94 40 t-41 95z" />
<glyph unicode="&#x3c;" d="M113 457v157l966 459v-131l-839 -407l839 -406v-131z" />
<glyph unicode="=" horiz-adv-x="1304" d="M113 270v121h1079v-121h-1079zM113 676v125h1079v-125h-1079z" />
<glyph unicode="&#x3e;" d="M113 -2v131l839 406l-839 407v131l966 -459v-157z" />
<glyph unicode="?" horiz-adv-x="1007" d="M123 1493q0 66 37 109t94 67.5t122.5 34.5t125.5 10q80 0 150.5 -17.5t124.5 -56t86 -100t32 -149.5t-44 -157t-109.5 -125t-143.5 -104.5t-143.5 -98.5t-109.5 -103t-44 -121q0 -41 12.5 -68.5t30.5 -45t41 -24.5t41 -7q86 0 126 53t23 125l21 12q33 -12 52.5 -44 t19.5 -73q0 -31 -15.5 -59.5t-42 -51t-64.5 -35.5t-81 -13q-29 0 -71 9t-81 34.5t-67.5 72.5t-28.5 125q0 82 37 147.5t92 123t119.5 108.5t120 103.5t92.5 109.5t37 127t-24.5 116t-63.5 71.5t-84 36t-88 10.5q-53 0 -90 -11l-15 -10l-57 -256l-14 -12q-57 0 -106.5 33.5 t-49.5 103.5zM307 111q0 55 41 95t94 40q55 0 95.5 -40t40.5 -95t-40.5 -95.5t-95.5 -40.5q-53 0 -94 40t-41 96z" />
<glyph unicode="@" horiz-adv-x="2134" d="M82 504q0 180 72.5 360t207 325.5t323.5 237t423 91.5q223 0 399 -61.5t297 -170t184.5 -258t63.5 -328.5q0 -109 -48 -234.5t-141.5 -235t-228.5 -182.5t-309 -73q-78 0 -114.5 29t-47 74t-1.5 100t24 111l47 178h-31q-33 -94 -74 -183t-92 -158t-111.5 -110t-129.5 -41 q-78 0 -123 51.5t-65.5 126t-19.5 158.5t17 150q25 109 83 210t135 180t167 126t180 47q10 0 51.5 -2t84.5 -14l10 55h139l10 -8l-161 -899q-2 -14 -4.5 -30.5t1 -32t13.5 -27t33 -11.5q121 0 227 50.5t186 137.5t127 204.5t47 250.5q0 180 -67.5 315.5t-180 225.5t-259 134 t-302.5 44q-172 0 -332.5 -62.5t-284.5 -179t-199 -283.5t-75 -378q0 -233 75 -405t200 -284t287.5 -167t339.5 -55q150 0 267.5 36.5t233.5 102.5l11 -2l18 -47q-135 -102 -288.5 -142t-295.5 -40q-195 0 -376 69.5t-319 198.5t-221 312t-83 413zM750 270q4 -43 17 -76.5 t38.5 -53t62.5 -19.5q41 0 80 27.5t75 74.5t67.5 108.5t60.5 129.5q31 74 55.5 149.5t43 142t28.5 118t14 75.5l-20 12q-117 0 -209 -53t-158.5 -138t-105.5 -191.5t-49 -213.5q-4 -49 0 -92z" />
<glyph unicode="A" horiz-adv-x="1499" d="M25 0v51l75 29q51 20 70.5 52t34.5 67l459 1235l176 22l12 -10l430 -1243q10 -33 33.5 -67t79.5 -52l80 -27v-57h-580v53l127 37q33 10 45 22.5t12 30.5q0 12 -5 32t-11 38l-121 358h-493l-123 -364q-4 -16 -9.5 -32.5t-5.5 -31.5q0 -18 10.5 -33.5t34.5 -21.5l138 -35 v-53h-469zM477 657h434l-215 641z" />
<glyph unicode="B" horiz-adv-x="1292" d="M102 0v76q104 0 143.5 37t39.5 108v991q0 72 -39 109t-144 37v76h564q150 0 242.5 -36t145 -89.5t70 -113.5t17.5 -110q0 -47 -16.5 -97t-51.5 -93t-92 -77t-137 -50v-12q166 -27 266 -118t100 -253q0 -84 -27.5 -153.5t-86 -122t-147.5 -81t-212 -28.5h-635zM477 221 q0 -72 37 -108.5t139 -36.5q121 0 194 29.5t110.5 75.5t50 104.5t12.5 113.5q0 57 -21.5 113.5t-70.5 100.5t-129 72t-195 28h-127v-492zM477 795q14 -2 32.5 -2h33.5q113 0 189.5 23.5t124.5 63.5t68.5 93t20.5 112q0 39 -9 86.5t-40 88t-90 69.5t-160 29q-100 0 -135 -38 t-35 -108v-417z" />
<glyph unicode="C" horiz-adv-x="1439" d="M82 715q0 186 62.5 327.5t171 234.5t256 140t317.5 47q33 0 78 -4t90 -10t85 -10t66 -4q43 0 70 8t41 18l16 -18l-71 -326l-15 -10h-26q-8 70 -42 120t-85.5 82.5t-114.5 48t-133 15.5q-121 0 -221.5 -46t-172 -132t-111.5 -208t-40 -273q0 -150 40 -270.5t112.5 -204.5 t174 -130.5t222.5 -46.5q51 0 114.5 7.5t128 34t125 80t105.5 145.5l35 -15l8 -18l-68 -256q-29 -16 -79 -28.5t-107 -22.5t-115.5 -15.5t-103.5 -5.5q-172 0 -320.5 46t-258 139.5t-172 233.5t-62.5 327z" />
<glyph unicode="D" horiz-adv-x="1622" d="M102 0v76q104 0 143.5 37t39.5 108v991q0 72 -39 109t-144 37v76q180 0 341 5t292 5q168 0 315.5 -46t256 -138.5t171 -228.5t62.5 -316q0 -178 -62.5 -314.5t-171 -227.5t-256 -137t-317.5 -46q-129 0 -288.5 5t-342.5 5zM477 221q0 -72 37 -108.5t139 -36.5h80 q152 0 262.5 45t183 129t107.5 201.5t35 263.5q0 145 -35 264t-106.5 203t-182 130t-262.5 46h-102q-92 -2 -124 -41t-32 -105v-991z" />
<glyph unicode="E" horiz-adv-x="1341" d="M102 0v76q104 0 143.5 37t39.5 108v991q0 72 -39 109t-144 37v76h1041l26 -19l-73 -303l-15 -10h-26q-14 135 -83 195.5t-198 60.5h-121q-102 0 -139 -38t-37 -108v-450h277q39 0 67.5 9t47 33.5t27.5 67.5t9 111h70v-494l-53 -8l-17 8q0 113 -37 152t-114 39h-277v-459 q0 -70 34 -107.5t122 -37.5h205q37 0 85 8t99 34.5t101.5 76t88.5 131.5l29 -7l8 -18l-82 -301h-1065z" />
<glyph unicode="F" horiz-adv-x="1261" d="M102 0v76q104 0 143.5 37t39.5 108v991q0 72 -39 109t-144 37v76h1041l26 -19l-73 -303l-15 -10h-26q-14 135 -83 195.5t-198 60.5h-121q-102 0 -139 -38t-37 -108v-450h277q39 0 67.5 9t47 33.5t27.5 67.5t9 111h70v-494l-53 -8l-17 8q0 113 -37 152t-114 39h-277v-459 q0 -35 9.5 -61.5t35 -45t72.5 -28.5t123 -10l8 -17l-8 -59h-615z" />
<glyph unicode="G" horiz-adv-x="1552" d="M82 715q0 186 62.5 327.5t171 234.5t256 140t317.5 47q33 0 77 -4t89 -10t86 -10t67 -4q43 0 70 8t41 18l27 -18l-72 -326l-14 -10h-27q-10 72 -45 122t-86 83t-111.5 47t-120.5 14q-141 0 -247.5 -48t-177 -136t-106.5 -209t-36 -266q0 -150 36 -270.5t108.5 -204.5 t183 -130.5t260.5 -46.5q18 0 53 2.5t78 8.5t91 19t95 38v244q0 37 -9 64.5t-32.5 45t-64.5 26.5t-107 9v76h539l8 -59l-8 -17q-98 0 -132 -35.5t-34 -109.5v-307q-33 -16 -83 -33t-111.5 -32t-132 -24.5t-146.5 -9.5q-172 0 -320.5 46t-258 139.5t-172 233.5t-62.5 327z " />
<glyph unicode="H" horiz-adv-x="1755" d="M102 0v76q104 0 143.5 37t39.5 108v991q0 72 -39 109t-144 37v76h572l8 -60l-8 -16q-119 0 -158 -38t-39 -108v-446h778v446q0 72 -38.5 109t-143.5 37v76h572l8 -60l-8 -16q-119 0 -158 -38t-39 -108v-991q0 -35 8 -62.5t30.5 -46t60.5 -27.5t98 -9l8 -17l-8 -59h-572 v76q104 0 143 37t39 108v455h-778v-455q0 -35 8.5 -62.5t31 -46t60 -27.5t97.5 -9l8 -17l-8 -59h-572z" />
<glyph unicode="I" horiz-adv-x="774" d="M102 0v76q104 0 143.5 37t39.5 108v991q0 72 -39 109t-144 37v76h562l8 -60l-8 -16q-111 0 -149 -37t-38 -109v-991q0 -72 38 -108.5t149 -36.5l8 -17l-8 -59h-562z" />
<glyph unicode="J" horiz-adv-x="733" d="M-225 -311q0 39 15 65.5t36.5 43t47.5 23.5t46 7l14 -12l58 -254l14 -11q133 0 195.5 57.5t62.5 149.5v1444q0 72 -40 114t-152 42v76h571l8 -60l-8 -16q-111 0 -148.5 -42t-37.5 -114v-1317q0 -102 -31 -179t-85 -127t-127 -75.5t-157 -25.5q-57 0 -108 13t-90 40 t-61.5 67t-22.5 91z" />
<glyph unicode="K" horiz-adv-x="1527" d="M102 0v76q104 0 143.5 37t39.5 108v991q0 72 -39 109t-144 37v76h572l8 -60l-8 -16q-119 0 -158 -38t-39 -108v-460h76l580 571l-158 39v72h455v-72l-175 -39l-542 -506l499 -647q27 -35 62 -49.5t72 -14.5q29 0 65.5 6.5t65.5 16.5l10 -16l-10 -35q-47 -45 -113 -77 t-147 -32q-72 0 -130.5 33t-101.5 92l-379 520q-18 25 -41.5 40.5t-87.5 15.5v-449q0 -35 8.5 -62.5t31 -46t60 -27.5t97.5 -9l8 -17l-8 -59h-572z" />
<glyph unicode="L" horiz-adv-x="1314" d="M102 0v76q104 0 143.5 37t39.5 108v991q0 72 -39 109t-144 37v76h572l8 -60l-8 -16q-119 0 -158 -38t-39 -108v-991q0 -72 32 -108.5t124 -36.5h184q35 0 83 8t99.5 34.5t100.5 76t86 131.5l28 -7l9 -18l-82 -301h-1039z" />
<glyph unicode="M" horiz-adv-x="1984" d="M92 0v76q104 0 141 39t43 110l80 998q-2 61 -39.5 98t-142.5 37v76h434l404 -1084l385 1084h411v-76q-111 0 -149.5 -38t-40.5 -112l82 -983q2 -35 11 -62.5t29.5 -47t55.5 -29.5t88 -10l8 -17l-8 -59h-579v76q123 0 165 39q36 34 36 93q0 8 -1 17l-80 998l-454 -1223 h-23l-487 1225l-80 -1000q-1 -8 -1 -16q0 -61 40 -95q45 -38 168 -38l8 -17l-8 -59h-496z" />
<glyph unicode="N" horiz-adv-x="1755" d="M102 0v76q104 0 143.5 37t39.5 108v1000q0 63 -39 100t-144 37v76h404l862 -1072v850q0 35 -9 63t-34 46t-68 27.5t-108 9.5v76h506l8 -60l-8 -16q-111 0 -149 -37t-38 -109v-1212h-71l-1010 1227v-1006q0 -35 9.5 -62.5t34 -46t68.5 -27.5t113 -9l9 -17l-9 -59h-510z " />
<glyph unicode="O" horiz-adv-x="1650" d="M82 713q0 170 54 308t152.5 236.5t234.5 152.5t300 54t301.5 -54t235.5 -152.5t153.5 -236.5t55.5 -308q0 -168 -55.5 -305.5t-153.5 -234.5t-235.5 -150.5t-301.5 -53.5t-300 53.5t-234.5 150.5t-152.5 234.5t-54 305.5zM303 713q0 -139 34 -259t100.5 -208 t163.5 -138.5t224 -50.5t224.5 50.5t164 138.5t100.5 207.5t34 261.5q0 141 -34 262t-100.5 210t-164 139t-224.5 50t-224 -51t-163.5 -140t-100.5 -210t-34 -262z" />
<glyph unicode="P" horiz-adv-x="1224" d="M102 0v76q104 0 143.5 37t39.5 108v991q0 72 -39 109t-144 37v76h568q154 0 247 -39t143 -99.5t66.5 -134.5t16.5 -143q0 -59 -26.5 -130t-90 -133.5t-169 -104.5t-265.5 -42h-56.5t-58.5 4v-391q0 -35 9.5 -62.5t34 -46t68.5 -27.5t116 -9l8 -17l-8 -59h-603zM477 696 q14 -2 33.5 -2h34.5q117 0 196.5 29t128 80t68.5 120.5t20 149.5q0 57 -15 108.5t-52 90.5t-98.5 62.5t-151.5 23.5q-96 0 -130 -39t-34 -107v-516z" />
<glyph unicode="Q" horiz-adv-x="1665" d="M82 715q0 170 55.5 308t153.5 236.5t234.5 151.5t299.5 53q164 0 300.5 -53t234.5 -151.5t153.5 -236.5t55.5 -308q0 -141 -37 -260t-106.5 -210t-167 -154.5t-216.5 -94.5v-10q80 -31 154 -67t143.5 -66.5t138 -51t140.5 -20.5q63 0 105 8t72 23.5t51.5 40t43.5 59.5 l17 -18l-9 -62q-12 -33 -33.5 -77t-59.5 -85t-94 -69.5t-134 -28.5t-145.5 29.5t-128 73.5t-115.5 95.5t-112.5 95.5t-119 73.5t-131.5 29.5q-164 0 -300 53.5t-234 150.5t-153.5 234.5t-55.5 307.5zM303 715q0 -141 34 -261t100.5 -208t163.5 -138.5t224 -50.5t224.5 50.5 t164 138.5t100.5 208.5t34 262.5q0 139 -34 260t-100.5 210t-164 139t-224.5 50t-224 -50t-163.5 -139t-100.5 -210t-34 -262z" />
<glyph unicode="R" horiz-adv-x="1464" d="M102 0v76q104 0 143.5 37t39.5 108v993q0 72 -39 108t-144 36v76h570q150 0 242 -36t143 -93.5t68.5 -127t17.5 -139.5q0 -49 -17.5 -103t-57.5 -103.5t-106.5 -89.5t-166.5 -60v-12q49 -6 88 -29t71.5 -57.5t57 -78.5t43.5 -93q23 -59 48 -114.5t54 -97.5t63.5 -68 t75.5 -26q33 0 55.5 5.5t61.5 17.5l10 -12l-14 -43q-43 -47 -104.5 -76t-116.5 -29q-63 0 -109.5 23.5t-80 64.5t-57 96.5t-44.5 118.5q-27 86 -65.5 172t-108.5 146q-35 29 -90 46t-156 17v-432q0 -35 8.5 -62.5t31 -46t60 -27.5t97.5 -9l8 -17l-8 -59h-572zM477 739 q14 -2 33.5 -2h34.5q117 0 195.5 25.5t126.5 73t69.5 111t21.5 140.5q0 55 -15 104.5t-52 86.5t-95.5 58.5t-144.5 21.5q-102 0 -138 -38t-36 -106v-475z" />
<glyph unicode="S" horiz-adv-x="1110" d="M72 389l20 19l80 6q0 -88 33 -154.5t85 -111t117.5 -67t133.5 -22.5q66 0 123 12.5t100 42t67.5 77t24.5 116.5q0 90 -55.5 149.5t-138 105.5t-180 88t-180.5 98.5t-138 134.5t-55 196q0 96 39.5 169t103 121t141.5 71.5t154 23.5q33 0 77 -4t86 -10t74.5 -10t42.5 -4 h29.5t37 3t38 8t31.5 15l20 -18l-72 -326l-14 -10h-35q0 45 -18.5 92t-56 86t-95 64.5t-137.5 25.5q-55 0 -105.5 -13t-89 -40t-62.5 -68t-24 -98q0 -96 56.5 -157.5t141.5 -108.5t184.5 -88t184.5 -94.5t141 -129t56 -190.5q0 -96 -42 -173t-109.5 -132t-153.5 -85 t-174 -30q-23 0 -69 2t-108.5 11.5t-136 31t-151.5 62.5z" />
<glyph unicode="T" horiz-adv-x="1273" d="M31 1128l49 306h1116l47 -306l-8 -18l-29 -8q-33 82 -85 133t-115.5 79.5t-134 39t-138.5 10.5v-1143q0 -72 40 -108.5t161 -36.5l8 -17l-8 -59h-590v76q115 0 156 37t41 108v1143q-68 0 -138.5 -10.5t-134 -39t-116 -79.5t-84.5 -133l-29 8z" />
<glyph unicode="U" horiz-adv-x="1669" d="M92 1358v76h586l8 -60l-8 -16q-63 0 -103 -10.5t-64 -29t-32 -46t-8 -62.5v-659q0 -147 29.5 -239.5t84 -144.5t127 -71.5t158.5 -19.5q88 0 164 21.5t130.5 74.5t85 145.5t30.5 233.5v659q0 72 -41 110t-145 38v76h475l8 -60l-8 -16q-111 0 -149 -38t-38 -110v-641 q0 -188 -54 -305t-134 -182.5t-172 -89t-166 -23.5q-100 0 -203.5 23.5t-187.5 88t-137.5 180.5t-53.5 300v649q0 72 -38.5 110t-143.5 38z" />
<glyph unicode="V" horiz-adv-x="1507" d="M41 1376v58h596v-54l-131 -37q-59 -16 -60 -53q0 -16 5.5 -33.5t11.5 -35.5l360 -906l346 912q4 14 8.5 31.5t4.5 27.5q0 23 -9.5 38t-35.5 22l-142 34v54h471v-52l-75 -28q-49 -18 -70 -51t-35 -68l-508 -1235h-16l-529 1231q-14 33 -37.5 65.5t-74.5 53.5z" />
<glyph unicode="W" horiz-adv-x="2222" d="M41 1376v58h596v-54l-131 -37q-59 -16 -60 -53q0 -16 5.5 -33.5t11.5 -35.5l319 -899l279 829l-31 80q-14 33 -37.5 65.5t-74.5 53.5l-80 26v58h596v-54l-131 -37q-59 -16 -60 -53q0 -16 5 -33.5t12 -35.5l319 -899l305 905q4 14 8 31.5t4 27.5q0 23 -9 38t-36 22 l-141 34v54h471v-52l-76 -28q-49 -18 -69.5 -51t-34.5 -68l-467 -1235h-16l-400 1008l-381 -1008h-16l-488 1231q-14 33 -37.5 65.5t-74.5 53.5z" />
<glyph unicode="X" horiz-adv-x="1503" d="M41 0v57q129 35 205 127l409 490l-405 559q-41 55 -85 97t-120 48v56h629v-58l-129 -37q-63 -16 -64 -73q0 -23 17 -49l284 -392l332 398q23 27 23 57q0 47 -52 61l-137 35v58h510v-56l-74 -28q-29 -12 -59.5 -35t-60.5 -60l-426 -507l399 -545q41 -57 98.5 -93 t126.5 -53v-57h-653v53l137 37q35 10 49.5 28.5t14.5 43.5q0 29 -17 51l-280 385l-328 -391q-23 -27 -23 -57q0 -47 52 -62l137 -35v-53h-510z" />
<glyph unicode="Y" horiz-adv-x="1359" d="M41 1376v58h582v-54l-127 -37q-35 -10 -49.5 -26.5t-14.5 -34.5q0 -27 17 -61l270 -553l305 559q10 20 14 33.5t4 23.5q0 20 -10 36.5t-39 25.5l-137 34v54h463v-52l-76 -28q-39 -16 -62.5 -52t-41.5 -67l-369 -641v-373q0 -35 8 -62.5t30.5 -46t60.5 -27.5t98 -9l8 -17 l-8 -59h-582v76q113 0 153 37t40 108v359l-345 651q-20 37 -45.5 70.5t-66.5 48.5z" />
<glyph unicode="Z" horiz-adv-x="1339" d="M109 0v78l833 1268l-4 20l-465 -20q-59 -4 -104 -33t-76 -76t-47.5 -110.5t-16.5 -133.5l-24 -16l-49 14l22 443h1008v-78l-834 -1272l6 -16l541 22q121 4 186.5 103.5t65.5 267.5l25 18l55 -18l-21 -461h-1101z" />
<glyph unicode="[" horiz-adv-x="595" d="M113 -483v2035h352l8 -65l-8 -17h-217v-1871h217l8 -17l-8 -65h-352z" />
<glyph unicode="\" horiz-adv-x="727" d="M41 1552h98l547 -2035h-98z" />
<glyph unicode="]" horiz-adv-x="595" d="M123 -418l8 17h217v1871h-217l-8 17l8 65h352v-2035h-352z" />
<glyph unicode="^" horiz-adv-x="1136" d="M113 473l395 905h121l395 -905h-121l-336 766l-334 -766h-120z" />
<glyph unicode="_" horiz-adv-x="1429" d="M113 -96h1204v-121h-1204v121z" />
<glyph unicode="`" horiz-adv-x="638" d="M113 1520q8 31 17 52t32 38q23 16 45 21t53 5l266 -465l-20 -34l-41 -9z" />
<glyph unicode="a" horiz-adv-x="1007" d="M74 238q0 70 28.5 120t75.5 82.5t107.5 52t122 29.5t119 13t100.5 2v225q0 92 -71 148.5t-234 56.5l-15 -11l-63 -241l-15 -13q-12 0 -32.5 8.5t-40 25t-35 41t-15.5 57.5q0 51 32 92t83 67.5t115.5 41t132.5 14.5q172 0 253 -77t81 -218v-510q0 -92 46 -127t126 -35 l6 -12l-8 -23q-41 -43 -90 -57.5t-82 -14.5q-43 0 -76 18.5t-54.5 47.5t-32.5 63.5t-11 69.5h-9q-2 -12 -16 -45t-45 -66.5t-82 -60.5t-127 -27q-129 0 -201.5 69t-72.5 194zM264 246q0 -45 15.5 -73t40 -43t52 -21.5t52.5 -6.5q63 0 120.5 42t82.5 114v227q-45 0 -107.5 -8 t-119 -34.5t-96.5 -73.5t-40 -123z" />
<glyph unicode="b" horiz-adv-x="1183" d="M10 1444v45l336 119l16 -15v-739h9q35 61 79 99t88 59.5t82.5 29t65.5 7.5q117 0 199 -44t133 -116t73.5 -163t22.5 -185q0 -117 -32.5 -220.5t-96 -180.5t-157 -121t-212.5 -44q-55 0 -97 9.5t-76.5 19.5t-61.5 19.5t-51 9.5q-37 0 -75 -12.5t-75 -45.5l-33 19 q18 53 26.5 119.5t8.5 126.5v1167zM362 231q14 -49 46 -83.5t69 -56t77 -31t75 -9.5q74 0 129 33t92 90t55.5 136t18.5 171t-18.5 171t-56.5 137.5t-98.5 92t-144.5 33.5q-25 0 -57.5 -7t-67.5 -23.5t-66.5 -44t-52.5 -68.5v-541z" />
<glyph unicode="c" horiz-adv-x="1038" d="M70 498q0 145 49 249.5t122.5 171t159.5 98.5t158 32q98 0 169 -25t118 -62.5t69.5 -82.5t22.5 -88q0 -66 -40 -108t-95 -42l-19 12l-49 250l-4 6q-59 59 -172 60q-49 0 -104.5 -22.5t-101.5 -73t-76.5 -131t-30.5 -197.5q0 -123 38 -203t95 -126t123.5 -64.5 t124.5 -18.5q88 0 174 35t135 100l14 -4l19 -20q-61 -129 -171 -199t-243 -70q-92 0 -179 30t-155.5 93.5t-109.5 162.5t-41 237z" />
<glyph unicode="d" horiz-adv-x="1245" d="M70 485q0 117 32.5 219.5t95 179.5t155.5 121t214 44q12 0 40 -2.5t64 -10.5t75.5 -24.5t74.5 -44.5v442l-172 35v45l336 119l16 -15v-1419l173 -37v-45l-336 -119l-17 15v178h-8q-35 -59 -79 -96t-88 -58.5t-84 -29t-64 -7.5q-117 0 -198 44t-132 116t-74.5 163 t-23.5 187zM260 541q0 -92 19.5 -171t58.5 -137.5t99.5 -91t142.5 -32.5q25 0 57.5 7t66 23.5t64.5 44t53 70.5v530q-29 92 -101.5 140.5t-164.5 48.5q-72 0 -126 -33t-92 -90t-57.5 -136t-19.5 -173z" />
<glyph unicode="e" horiz-adv-x="1058" d="M70 498q0 147 49 251.5t122.5 171t160.5 97.5t165 31q111 0 190 -30t129 -82t74.5 -123t24.5 -155h-731q-4 -29 -6 -54t-2 -60q0 -123 43 -203t104.5 -126t129 -64.5t114.5 -18.5q98 0 183 36t138 99l15 -6l16 -18q-61 -129 -171.5 -199t-252.5 -70q-96 0 -186 30 t-158.5 93.5t-109.5 161.5t-41 238zM268 739h512q0 123 -60.5 176.5t-152.5 53.5q-43 0 -90 -12.5t-89 -40t-74.5 -70.5t-45.5 -107z" />
<glyph unicode="f" horiz-adv-x="749" d="M72 0v72q98 0 135 37.5t37 113.5v709h-172v51l172 41v186q0 102 36.5 179t93 127.5t125 76t132.5 25.5q57 0 109.5 -14.5t90 -40t60 -63.5t22.5 -85q0 -37 -14 -63.5t-34.5 -45t-42 -26.5t-34.5 -8l-14 12l-57 252l-15 10q-147 0 -212.5 -61.5t-65.5 -159.5v-301h344 l-18 -76l-23 -16h-303v-709q0 -37 9 -65.5t36 -48t75 -28.5t128 -9l8 -17l-8 -55h-600z" />
<glyph unicode="g" horiz-adv-x="1114" d="M14 -311q0 55 20.5 92t52.5 63.5t72 48t81 44.5v8q-25 10 -51.5 27.5t-48 41t-35 55t-13.5 72.5q0 47 26.5 81t61.5 63q29 25 59.5 47t59.5 49v8q-86 41 -135 119t-49 182q0 90 39 157.5t99 112t136 67t150 22.5q72 0 141.5 -17.5t128.5 -54.5l278 72l13 -15l-17 -133 l-188 12l-4 -6q35 -41 53.5 -96t18.5 -121q0 -86 -36 -152.5t-94.5 -111.5t-135 -68.5t-158.5 -23.5q-35 0 -87.5 7t-95.5 24q-35 -16 -66.5 -56.5t-31.5 -83.5q0 -41 19.5 -66.5t54.5 -40t80 -19.5t98 -5q94 0 191.5 -7t176 -37t129 -86t50.5 -154q0 -82 -42 -157 t-116 -131.5t-176 -90t-223 -33.5q-88 0 -175 19.5t-156 56.5t-112 91t-43 124zM195 -270q0 -63 35.5 -106.5t91 -69t122 -37t127.5 -11.5q104 0 175 18.5t113 47.5t59.5 64.5t17.5 70.5q0 63 -33 102t-91 59.5t-137 28t-171 7.5q-8 0 -33 1t-55.5 4t-62 6t-54.5 9 q-16 -8 -33.5 -23.5t-34 -39t-26.5 -56t-10 -75.5zM289 690q0 -82 25.5 -136t62.5 -86t81 -45t81 -13t81 13t80.5 45t62 86t25.5 136q0 80 -25.5 134.5t-62 86t-81 46t-80.5 14.5q-37 0 -81 -14.5t-81 -46t-62.5 -86t-25.5 -134.5z" />
<glyph unicode="h" horiz-adv-x="1351" d="M72 0v72q98 0 135 37.5t37 113.5v1186l-172 35v45l336 119l16 -15v-739h8q53 92 138 143.5t198 51.5q166 0 250 -95.5t84 -253.5v-477q0 -76 39 -113.5t129 -37.5l10 -17l-10 -55h-496v72q86 0 117 37.5t31 113.5v434q0 51 -10.5 98.5t-37 83t-71.5 57.5t-115 22 q-29 0 -63.5 -6.5t-70.5 -24t-69.5 -49t-60.5 -82.5v-533q0 -76 37 -113.5t141 -37.5l8 -17l-8 -55h-530z" />
<glyph unicode="i" horiz-adv-x="679" d="M72 0v72q98 0 135 37.5t37 113.5v617l-172 34v56l336 119l16 -15v-811q0 -76 37 -113.5t139 -37.5l8 -17l-8 -55h-528zM193 1401q0 55 40.5 95t94.5 40q55 0 95 -40t40 -95t-40 -95t-95 -40q-53 0 -94 40t-41 95z" />
<glyph unicode="j" horiz-adv-x="655" d="M-250 -399q0 37 14.5 63.5t35 45t42 26.5t33.5 8l14 -12l58 -250l14 -10q147 0 213 60t66 159v1149l-172 34v56l335 119l17 -15v-1229q0 -102 -36 -179t-93.5 -127t-126 -75.5t-133.5 -25.5q-119 0 -200 53t-81 150zM188 1401q0 55 41 95t95 40q55 0 95 -40t40 -95 t-40 -95t-95 -40q-53 0 -94.5 40t-41.5 95z" />
<glyph unicode="k" horiz-adv-x="1239" d="M72 0v63q98 0 135 42t37 118v1186l-172 35v45l336 119l16 -15v-1032h59l400 373l-176 35v55h456v-55l-157 -35l-375 -318v-10l356 -465q41 -51 100.5 -59t135.5 -8l6 -8l-4 -15q-35 -33 -83 -54.5t-132 -21.5q-59 0 -111.5 21.5t-87.5 69.5l-281 399q-14 16 -38.5 26.5 t-67.5 12.5v-281q0 -76 36 -118t136 -42l8 -16l-8 -47h-524z" />
<glyph unicode="l" horiz-adv-x="681" d="M72 0v72q98 0 135 37.5t37 113.5v1186l-172 35v45l336 119l16 -15v-1370q0 -76 37 -113.5t141 -37.5l8 -17l-8 -55h-530z" />
<glyph unicode="m" horiz-adv-x="2013" d="M72 0v72q98 0 135 37.5t37 113.5v617l-172 34v56l336 119l16 -15v-194h8q53 104 139 156.5t189 52.5q123 0 199.5 -55.5t109.5 -147.5q55 96 143 149.5t218 53.5q166 0 249.5 -95.5t83.5 -253.5v-477q0 -76 39 -113.5t129 -37.5l11 -17l-11 -55h-495v72q86 0 116.5 37.5 t30.5 113.5v434q0 51 -10 98.5t-37 83t-72 57.5t-114 22q-23 0 -56.5 -6.5t-70.5 -20.5t-73 -40t-63 -65q4 -18 5.5 -41.5t1.5 -44.5v-477q0 -76 40 -113.5t136 -37.5l10 -17l-10 -55h-504v72q86 0 116.5 37.5t30.5 113.5v434q0 51 -10 98.5t-36.5 83t-71.5 57.5t-115 22 q-16 0 -49 -6.5t-70 -24t-73.5 -49t-63.5 -80.5v-535q0 -76 37 -113.5t141 -37.5l8 -17l-8 -55h-530z" />
<glyph unicode="n" horiz-adv-x="1347" d="M72 0v72q98 0 135 37.5t37 113.5v617l-172 34v56l336 119l16 -15v-194h8q109 209 332 209q166 0 250 -95.5t84 -253.5v-477q0 -76 39 -113.5t129 -37.5l10 -17l-10 -55h-496v72q86 0 117 37.5t31 113.5v445q0 47 -10.5 92t-37 79.5t-71.5 56.5t-115 22q-25 0 -58.5 -6.5 t-70.5 -24t-71.5 -49t-59.5 -80.5v-535q0 -76 36 -113.5t134 -37.5l8 -17l-8 -55h-522z" />
<glyph unicode="o" d="M70 508q0 113 35.5 212t103 173t166 116t221.5 42t221 -42t166 -116t103.5 -173t35.5 -212q0 -115 -35.5 -212t-103.5 -169t-166 -113t-221 -41t-221.5 41t-166 113t-103 169t-35.5 212zM272 510q0 -96 20.5 -180t61.5 -145.5t101.5 -97.5t140.5 -36t140.5 36t101.5 97.5 t61.5 145.5t20.5 180q0 94 -20.5 179t-61.5 147.5t-101.5 99.5t-140.5 37t-140.5 -37t-101.5 -99.5t-61.5 -147.5t-20.5 -179z" />
<glyph unicode="p" horiz-adv-x="1243" d="M70 874v56l336 119l16 -15v-176h8q35 59 79 96t88 58.5t83 29t65 7.5q117 0 199 -44t133 -117t74 -164t23 -185q0 -117 -33 -219.5t-96.5 -179.5t-156.5 -121t-212 -44q-10 0 -36 2.5t-61.5 10.5t-76.5 24.5t-80 44.5v-428q0 -43 8 -71.5t35 -46t73 -25.5t124 -8l8 -17 l-8 -55h-568v72q78 0 113 33.5t35 121.5v1205zM422 240q29 -92 101.5 -140.5t164.5 -48.5q70 0 125 33t93 91t57.5 137t19.5 171q0 90 -19.5 169t-58.5 137.5t-99.5 92t-141.5 33.5q-25 0 -58 -7t-66.5 -23.5t-65.5 -44t-52 -70.5v-530z" />
<glyph unicode="q" horiz-adv-x="1241" d="M70 483q0 117 32.5 220.5t96 180.5t157 121t211.5 44q55 0 97.5 -9.5t77 -19.5t61 -19.5t51.5 -9.5q37 0 75 12.5t75 45.5l32 -19q-18 -53 -26.5 -119.5t-8.5 -126.5v-1155q0 -84 36 -116.5t128 -32.5l9 -17l-9 -55h-587v72q80 0 127 8t73.5 25.5t34.5 46t8 71.5v539h-8 q-35 -61 -79 -99t-88 -59.5t-84 -29t-64 -7.5q-115 0 -197 44t-133 116t-74.5 163t-23.5 185zM260 543q0 -92 18.5 -172t56.5 -138.5t98.5 -91t144.5 -32.5q25 0 57.5 7t67 23.5t65.5 44t53 68.5v541q-16 49 -47 83.5t-67.5 56t-76.5 31t-75 9.5q-74 0 -129 -33t-92 -91 t-55.5 -136t-18.5 -170z" />
<glyph unicode="r" horiz-adv-x="933" d="M72 0v72q98 0 135 37.5t37 113.5v615l-172 34v56l336 119l16 -13l-14 -270h14q16 51 46 102.5t69 91t88 65.5t104 26q90 0 136 -50.5t46 -115.5q0 -51 -33.5 -102.5t-99.5 -73.5l-12 8l-61 176l-13 10q-35 0 -73.5 -15.5t-75.5 -42t-69 -62.5t-52 -79v-479q0 -37 8 -65.5 t35 -48t73 -28.5t124 -9l8 -17l-8 -55h-592z" />
<glyph unicode="s" horiz-adv-x="901" d="M78 309l16 15l64 6q4 -53 26.5 -102.5t60.5 -87.5t90 -60.5t116 -22.5q33 0 67.5 9.5t63 30t46 54t17.5 82.5q0 55 -39 93.5t-97 70t-127 61t-127 69.5t-97 97.5t-39 141.5q0 74 31.5 127t81 88t109.5 51.5t118 16.5q61 0 111.5 -11.5t97.5 -11.5q57 0 104 23l23 -17 l-39 -278l-21 -11l-43 -4q0 43 -12 85t-41 76t-76 55.5t-114 21.5q-25 0 -53.5 -8t-53.5 -26.5t-40 -47.5t-15 -72q0 -63 40 -103t99 -73t129 -61.5t129 -67.5t99 -94t40 -139q0 -70 -30.5 -126.5t-83 -97.5t-119 -63.5t-137.5 -22.5q-12 0 -47 1t-84.5 8.5t-107.5 21.5 t-116 41z" />
<glyph unicode="t" horiz-adv-x="755" d="M25 911v41l331 322h31v-260h344l-24 -86l-21 -17h-299v-585q0 -80 15.5 -127t41 -71t59.5 -30t68 -6q37 0 79 9.5t73 23.5l8 -10l-6 -29q-59 -53 -130 -82t-130 -29q-47 0 -93 11.5t-83 48.5t-59.5 104.5t-22.5 177.5v594h-182z" />
<glyph unicode="u" horiz-adv-x="1318" d="M31 913l10 62l324 49h32v-657q0 -53 10.5 -100.5t37 -83.5t71.5 -57.5t115 -21.5q31 0 66.5 7.5t70.5 26t67.5 52t59.5 86.5v490q0 76 -37 103.5t-139 27.5l-8 16l8 60l321 51h35v-852l172 -35v-43l-336 -119l-16 15v180h-8q-106 -195 -336 -195q-166 0 -250 94.5 t-84 254.5v442q0 76 -40 103.5t-136 27.5z" />
<glyph unicode="v" horiz-adv-x="1167" d="M14 969v55h508v-55l-145 -41l254 -752h8l260 752l-147 41v55h401v-55l-147 -41l-359 -930h-137l-350 930z" />
<glyph unicode="w" horiz-adv-x="1814" d="M14 969v55h508v-55l-145 -41l254 -750h8l215 623l-47 127l-145 41v55h507v-55l-145 -41l254 -750h8l260 750l-147 41v55h401v-55l-147 -41l-359 -930h-139l-252 670l-256 -670h-139l-348 930z" />
<glyph unicode="x" horiz-adv-x="1146" d="M14 0v57l144 39l334 387l-328 445l-146 39v57h521v-57l-142 -39l191 -285l20 -37l254 322l-139 39v57h407v-57l-143 -39l-334 -377l334 -455l146 -39v-57h-523v57l142 39l-193 293l-20 37l-256 -330l141 -39v-57h-410z" />
<glyph unicode="y" horiz-adv-x="1181" d="M-35 -418q0 37 12.5 64.5t33 46t44 28t45.5 9.5l15 -13l75 -235l13 -10q88 0 140 60t83 142l123 326l-385 928l-150 41v55h512v-55l-145 -41l260 -688h12l260 688l-145 41v55h399v-55l-151 -41l-533 -1299q-31 -72 -68.5 -116.5t-78.5 -70.5t-82 -35t-78 -9 q-102 0 -156.5 55t-54.5 129z" />
<glyph unicode="z" horiz-adv-x="958" d="M80 0v55l557 897l-4 15l-277 -17q-86 -4 -133 -76.5t-47 -183.5l-18 -12l-45 10l16 336h721v-55l-549 -897l4 -13l320 15q90 4 140 74.5t50 187.5l19 12l45 -12l-15 -336h-784z" />
<glyph unicode="{" horiz-adv-x="917" d="M113 500v71q84 0 137 14.5t84 46.5t42 80t11 115q0 51 -7 110.5t-14.5 121t-14.5 122t-7 113.5q0 123 101.5 191.5t342.5 68.5l7 -55q-139 0 -217 -37t-78 -145q0 -68 3 -125t8 -111.5t8 -111t3 -123.5q0 -61 -19.5 -115.5t-56 -96.5t-87 -66.5t-111.5 -24.5v-15 q61 0 111.5 -24.5t87 -66.5t56 -96t19.5 -116q0 -68 -3 -124t-8 -110t-8 -111.5t-3 -125.5q0 -109 77.5 -145.5t217.5 -36.5l-7 -55q-242 0 -343 68.5t-101 191.5q0 53 7 113.5t14.5 122t14.5 121t7 110.5q0 68 -11 116t-42 79.5t-84 46t-137 14.5z" />
<glyph unicode="|" horiz-adv-x="317" d="M113 -545v2159h92v-2159h-92z" />
<glyph unicode="}" horiz-adv-x="917" d="M123 -428q70 0 124 8t92 28.5t58.5 55.5t20.5 90q0 68 -3 125.5t-8.5 111.5t-8.5 110.5t-3 123.5q0 61 19.5 115.5t56.5 96.5t87 66.5t112 24.5v15q-61 0 -111.5 24.5t-87.5 66.5t-56.5 96t-19.5 116q0 68 3 124t8.5 110.5t8.5 111.5t3 125q0 55 -20.5 90t-58.5 55.5 t-92 28.5t-124 8l6 55q242 0 343 -68.5t101 -191.5q0 -53 -7 -113.5t-14 -122t-14.5 -120.5t-7.5 -111q0 -68 11.5 -115.5t42 -79.5t84 -46.5t137.5 -14.5v-71q-84 0 -137.5 -14.5t-84 -46t-42 -80t-11.5 -115.5q0 -51 7.5 -110.5t14.5 -121t14 -122t7 -113.5 q0 -123 -101 -191.5t-343 -68.5z" />
<glyph unicode="~" horiz-adv-x="1218" d="M113 467q33 63 70.5 101t74.5 58.5t72 28t63 7.5q55 0 110.5 -23t111 -48.5t110.5 -48t109 -22.5q59 0 106 40t76 118l90 -53q-39 -104 -115 -168t-170 -64q-66 0 -120 22.5t-104 49.5t-101.5 49.5t-108.5 22.5q-63 0 -108.5 -26t-83.5 -110z" />
<glyph unicode="&#xa1;" horiz-adv-x="505" d="M113 1001q0 55 41 95.5t94 40.5q55 0 95 -40t40 -96q0 -55 -40 -95t-95 -40q-53 0 -94 40t-41 95zM127 -481l88 1126l68 -12l86 -1114q0 -49 -36 -85t-85 -36t-85 36t-36 85z" />
<glyph unicode="&#xa2;" horiz-adv-x="1038" d="M70 705q0 135 43 234t108.5 165.5t144 102.5t150.5 44v193h82v-191q88 -4 151.5 -29.5t105.5 -62.5t62.5 -81t20.5 -83q0 -66 -40 -107.5t-95 -41.5l-19 12l-49 250l-4 6q-51 49 -133 58v-834h29q88 0 174 35t135 100l14 -4l19 -20q-57 -117 -154.5 -186.5t-216.5 -80.5 v-184h-82v182q-86 6 -167 40t-143.5 97.5t-99 158.5t-36.5 227zM246 752q0 -96 23.5 -165t61.5 -117t87 -75.5t98 -40.5v817q-47 -8 -95 -35.5t-87 -77.5t-63.5 -126t-24.5 -180z" />
<glyph unicode="&#xa3;" horiz-adv-x="1128" d="M82 0v70q82 0 130 17t72.5 44t32 60.5t7.5 68.5q0 111 -4.5 208t-10.5 189h-227v48l221 43q-8 102 -13 198t-5 195q0 102 41 179t102 127t134 75.5t136 25.5q125 0 204 -55t79 -160q0 -35 -14.5 -61.5t-38 -45t-50 -27.5t-51.5 -9l-14 12l-57 264l-15 11 q-115 0 -183.5 -59.5t-68.5 -160.5q0 -125 9.5 -255t9.5 -252h467l-19 -93h-448q0 -72 -10.5 -143.5t-29.5 -136t-48 -118.5t-66 -93l4 -10h516q59 0 92 35.5t50 82.5l35 -14l6 -18l-51 -242h-924z" />
<glyph unicode="&#xa4;" horiz-adv-x="1130" d="M113 268l141 135q-45 53 -70.5 120t-25.5 145q0 76 24.5 143.5t69.5 120.5l-139 133l82 82l129 -150q51 37 112.5 58.5t128.5 21.5q68 0 129.5 -20.5t112.5 -57.5l129 148l82 -82l-139 -133q45 -53 70.5 -121t25.5 -143q0 -78 -25.5 -145.5t-72.5 -121.5l141 -133 l-82 -82l-133 150q-51 -35 -111.5 -55.5t-126.5 -20.5q-68 0 -128 20.5t-111 55.5l-131 -150zM293 668q0 -74 20.5 -133.5t57.5 -102.5t86 -66.5t108 -23.5t109.5 23.5t87.5 65.5t57.5 102.5t20.5 134.5q0 150 -78 237.5t-197 87.5q-59 0 -108 -22.5t-86 -65.5t-57.5 -103.5 t-20.5 -133.5z" />
<glyph unicode="&#xa5;" horiz-adv-x="1359" d="M41 1376v58h582v-54l-127 -37q-35 -10 -49.5 -26.5t-14.5 -34.5q0 -27 17 -61l270 -551l305 557q10 20 14 33.5t4 23.5q0 20 -10 36.5t-39 25.5l-137 34v54h463v-52l-76 -28q-39 -16 -62.5 -52t-41.5 -67l-369 -639h498l-21 -88h-477v-287q0 -35 8 -62.5t30.5 -46 t60.5 -27.5t98 -9l8 -17l-8 -59h-582v76q113 0 153 37t40 108v287h-484l21 88h454l-336 635q-20 37 -45.5 70.5t-66.5 48.5z" />
<glyph unicode="&#xa6;" horiz-adv-x="321" d="M113 307h96v-758h-96v758zM113 614v758h96v-758h-96z" />
<glyph unicode="&#xa7;" horiz-adv-x="1224" d="M72 434q0 66 21.5 126.5t59 110.5t88 89t107.5 61q-39 45 -60.5 103.5t-21.5 134.5q0 102 39 175t99.5 120t134 68.5t141.5 21.5q70 0 133.5 -13.5t112.5 -39t78.5 -63.5t29.5 -87t-32.5 -87t-83.5 -38q-18 0 -41 6t-39 21q0 92 -44 153.5t-159 61.5q-31 0 -74 -10.5 t-83 -36t-67.5 -67.5t-27.5 -105q0 -82 57.5 -137.5t142.5 -99.5t185 -85t185 -94t142.5 -128t57.5 -187q0 -66 -21.5 -126.5t-59.5 -111.5t-89.5 -89t-108.5 -61q39 -45 61.5 -103t22.5 -134q0 -102 -38.5 -175t-99 -120t-134.5 -68.5t-141 -21.5q-70 0 -133.5 13.5 t-112.5 39t-79 63t-30 87.5q0 49 33 87t84 38q18 0 41 -6.5t39 -20.5q0 -92 44 -153.5t159 -61.5q31 0 74 10t82.5 36t67.5 68t28 105q0 82 -57.5 137.5t-142.5 99.5t-185.5 85t-185.5 94t-142 128t-57 187zM197 516q0 -59 31.5 -102t82.5 -77t118 -62.5t136.5 -58.5 t137 -64.5t122.5 -81.5q35 14 71 36.5t65.5 54.5t48 72.5t18.5 92.5q0 59 -31.5 102t-83 77t-118 62.5t-137 58t-138.5 64.5t-123 82q-35 -14 -70.5 -36.5t-64.5 -54.5t-47 -73t-18 -92z" />
<glyph unicode="&#xa8;" horiz-adv-x="843" d="M113 1266q0 53 37.5 90t89.5 37q53 0 90 -37t37 -90t-37 -90t-90 -37q-51 0 -89 36.5t-38 90.5zM477 1266q0 53 38 90t89 37q53 0 90 -37t37 -90t-37 -90t-90 -37q-51 0 -89 36.5t-38 90.5z" />
<glyph unicode="&#xa9;" horiz-adv-x="1548" d="M102 717q0 137 53.5 259t144.5 214t213 145.5t261 53.5t261 -53.5t213 -144.5t144.5 -213t53.5 -261q0 -137 -53.5 -259t-144.5 -214t-214 -145.5t-260 -53.5q-139 0 -261 53.5t-213 144.5t-144.5 213t-53.5 261zM172 717q0 -125 47 -234.5t129 -191.5t191.5 -129 t234.5 -47q129 0 239.5 46t190.5 127t126 190.5t46 238.5q0 125 -47 234.5t-129 191.5t-191.5 129t-234.5 47q-129 0 -239.5 -46t-190.5 -127t-126 -190.5t-46 -238.5zM356 705q0 98 35 173.5t95.5 127t141.5 77t175 25.5q18 0 42.5 -2t49.5 -5t46.5 -5t35.5 -2q25 0 40 4 t23 8l11 -6l-41 -197l-11 -6h-16q-12 76 -70.5 114t-136.5 38q-55 0 -107.5 -25t-92 -69t-63.5 -107.5t-24 -142.5q0 -80 26 -143.5t69 -107.5t97 -68t112 -24q27 0 60.5 5.5t68 22t67.5 47t58 79.5l18 -6l2 -8l-41 -158q-18 -10 -47 -17.5t-60.5 -12.5t-62.5 -8t-53 -3 q-94 0 -175 25.5t-141.5 76t-95.5 126t-35 174.5z" />
<glyph unicode="&#xaa;" horiz-adv-x="761" d="M102 635v78h557v-78h-557zM102 967q0 63 37 99t88.5 53.5t105.5 21.5t89 4v139q0 59 -38 86t-103 27l-9 -6l-36 -148l-9 -8q-49 0 -76.5 21.5t-27.5 58.5q0 33 21.5 56.5t55 39.5t76.5 24.5t86 8.5q98 0 142.5 -47t44.5 -133v-289q0 -49 27.5 -67.5t76.5 -18.5l4 -8 l-6 -19q-31 -25 -58.5 -34t-55.5 -9q-59 0 -87 35t-28 76h-8q0 -6 -7.5 -24.5t-24.5 -37t-47 -34t-73 -15.5q-74 0 -117 40t-43 108zM227 987q0 -35 22.5 -58.5t69.5 -23.5q25 0 56 16.5t47 55.5v141q-18 0 -50 -5t-65 -18.5t-56.5 -39t-23.5 -68.5z" />
<glyph unicode="&#xab;" horiz-adv-x="1140" d="M113 528v23l442 489l43 -53l6 -29l-334 -417l334 -437l-6 -26l-57 -47zM526 528v23l443 489l43 -53l6 -29l-324 -417l324 -437l-6 -26l-58 -47z" />
<glyph unicode="&#xac;" horiz-adv-x="1304" d="M113 680v121h1079v-604h-121v483h-958z" />
<glyph unicode="&#xad;" horiz-adv-x="876" d="M113 475v121h651v-121h-651z" />
<glyph unicode="&#xae;" horiz-adv-x="837" d="M102 1126q0 68 24 126.5t65.5 101.5t99 67.5t125.5 24.5q70 0 128 -24.5t101 -67.5t66.5 -101.5t23.5 -126.5q0 -66 -23.5 -123t-66.5 -99t-101.5 -66.5t-127.5 -24.5q-68 0 -125.5 24.5t-99 66.5t-65.5 99.5t-24 122.5zM150 1126q0 -55 20 -104t57 -85t85 -57.5 t104 -21.5q61 0 111.5 20.5t86 57.5t55 86t19.5 104q0 57 -20.5 107.5t-57.5 87.5t-87 58.5t-107 21.5q-59 0 -107.5 -21.5t-84.5 -58.5t-55 -87t-19 -108zM262 965v18q45 0 45 35v225q0 35 -45 35v18h141q76 0 100.5 -29.5t24.5 -60.5q0 -29 -19.5 -53.5t-64.5 -28.5v-8 q25 0 39.5 -18.5t24.5 -40.5q12 -29 26.5 -46.5t34.5 -17.5h9.5t13.5 4l4 -6l-2 -6q-10 -10 -27.5 -16t-31.5 -6q-31 0 -49.5 21.5t-30.5 49.5q-10 18 -18.5 37t-18.5 29t-22.5 12t-35.5 2v-96q0 -16 9.5 -25.5t36.5 -9.5l4 -8l-4 -10h-144zM360 1139h19q53 0 73.5 20.5 t20.5 48.5q0 29 -17.5 48.5t-56.5 19.5t-39 -35v-102z" />
<glyph unicode="&#xaf;" horiz-adv-x="1050" d="M154 1190v121h743v-121h-743z" />
<glyph unicode="&#xb0;" horiz-adv-x="774" d="M113 1016q0 57 21.5 107.5t58 87t87 58t107.5 21.5t107.5 -21.5t87 -58t58.5 -87t22 -107.5t-22 -107.5t-58.5 -87.5t-87 -58.5t-107.5 -21.5t-107.5 21.5t-87 58.5t-58 87t-21.5 108zM205 1016q0 -76 53 -129t129 -53q78 0 129 53t51 129q0 78 -51 129t-129 51 q-76 0 -129 -51t-53 -129z" />
<glyph unicode="&#xb1;" horiz-adv-x="1304" d="M113 0v125h1079v-125h-1079zM113 737v121h477v479h125v-479h477v-121h-477v-479h-125v479h-477z" />
<glyph unicode="&#xb2;" horiz-adv-x="860" d="M82 915v54q92 51 176 94t154 100q68 55 109.5 128t41.5 188q0 57 -17.5 97t-45 64.5t-64.5 36t-74 11.5q-29 0 -57.5 -5.5t-50.5 -15.5l-8 -10l-25 -144l-8 -6q-41 0 -72.5 21.5t-31.5 68.5q0 39 25.5 67t63.5 45t84 24.5t87 7.5q94 0 156.5 -21.5t100.5 -58.5t54 -85 t16 -99q0 -94 -36.5 -159t-92 -114t-120 -87t-119.5 -81v-14h254q25 0 47 3t41.5 15.5t37 35t33.5 61.5h21l6 -11l-29 -211h-657z" />
<glyph unicode="&#xb3;" horiz-adv-x="804" d="M82 1057q0 45 37 67.5t67 22.5l9 -8l24 -131l8 -11q29 -12 59.5 -17t59.5 -5q109 0 174.5 51t65.5 129q0 86 -67.5 133t-188.5 47q-47 0 -99 -10l-2 59q166 16 241 60.5t75 116.5q0 74 -55.5 105.5t-124.5 31.5q-63 0 -113 -21l-8 -10l-25 -139l-10 -8q-14 0 -32.5 6 t-34 17t-26 27.5t-10.5 39.5q0 39 25 66.5t62.5 44t84 23.5t87.5 7q90 0 150 -14.5t97 -40t53.5 -60t16.5 -75.5q0 -23 -9 -50.5t-35 -52t-74 -43t-124 -20.5v-11q86 -4 141.5 -24.5t87 -52t43 -68.5t11.5 -70q0 -47 -22.5 -92t-69.5 -80.5t-122 -58.5t-179 -23 q-43 0 -88 7.5t-80 24t-57.5 43t-22.5 67.5z" />
<glyph unicode="&#xb4;" horiz-adv-x="638" d="M113 1171l266 465q31 0 53.5 -5t44.5 -21q23 -16 32 -38t17 -52l-352 -392l-41 9z" />
<glyph unicode="&#xb6;" horiz-adv-x="1357" d="M205 969q0 117 45 220t122 180t180 122t220 45h176v-1135h-176q-117 0 -220 45.5t-180 122t-122 180t-45 220.5zM559 -385q0 37 15.5 63.5t39 45t53 26.5t58.5 8l14 -12l58 -264l14 -10q74 0 120 22.5t72.5 58t36 80.5t9.5 93v1810h104v-1808q0 -92 -31.5 -154.5 t-78 -101.5t-101.5 -55.5t-100 -16.5q-57 0 -108.5 14.5t-90.5 41t-61.5 66.5t-22.5 93z" />
<glyph unicode="&#xb7;" horiz-adv-x="495" d="M113 535q0 55 41 95t94 40q55 0 95 -40t40 -95t-40 -95.5t-95 -40.5q-53 0 -94 40t-41 96z" />
<glyph unicode="&#xb8;" horiz-adv-x="686" d="M113 -485q0 27 10 45t24.5 28.5t26.5 15.5t16 5q0 -47 15.5 -80t39 -53.5t52.5 -29.5t57 -9q45 0 80 17.5t35 51.5q0 33 -31.5 62t-68.5 62.5t-69 74.5t-32 100q0 57 18.5 98.5t41 67t44 37.5t25.5 15l21 -29q-27 -20 -40 -45t-13 -70q0 -49 32.5 -78.5t71.5 -60.5 t71.5 -72t32.5 -108q0 -72 -65.5 -124t-171.5 -52q-111 0 -167 37.5t-56 93.5z" />
<glyph unicode="&#xb9;" horiz-adv-x="634" d="M92 922v57q51 0 82 5t48.5 15.5t23.5 25.5t6 36v495q0 41 -27.5 61.5t-120.5 20.5v58l254 45h19v-680q0 -20 6 -35.5t22.5 -26t48 -15.5t85.5 -5l4 -10l-4 -47h-447z" />
<glyph unicode="&#xba;" horiz-adv-x="849" d="M102 635v78h646v-78h-646zM102 1133q0 63 20.5 119.5t61.5 99.5t101.5 67.5t138.5 24.5q80 0 140.5 -24.5t101.5 -66.5t61.5 -99.5t20.5 -120.5q0 -66 -20.5 -123.5t-61.5 -99.5t-101.5 -66.5t-140.5 -24.5t-139.5 24.5t-100.5 66.5t-61.5 99.5t-20.5 123.5zM244 1133 q0 -127 47 -195t133 -68t133 68t47 195q0 123 -47 191.5t-133 68.5t-133 -69t-47 -191z" />
<glyph unicode="&#xbb;" horiz-adv-x="1140" d="M123 98l334 437l-334 417l6 29l43 53l442 -489v-23l-428 -497l-57 47zM537 98l333 437l-333 417l6 29l43 53l442 -489v-23l-428 -497l-57 47z" />
<glyph unicode="&#xbc;" horiz-adv-x="1425" d="M92 717v57q51 0 82 5t48.5 15.5t23.5 26t6 35.5v496q0 41 -27.5 61.5t-120.5 20.5v57l254 45h19v-680q0 -20 6 -35.5t22.5 -26t48 -15.5t85.5 -5l4 -10l-4 -47h-447zM238 0l862 1536h92l-862 -1536h-92zM639 223v33l457 563h82v-504h155l-14 -92h-141v-84 q0 -41 26.5 -62.5t116.5 -21.5l4 -10l-4 -45h-399v55q86 0 112.5 21.5t26.5 62.5v84h-422zM750 315h311v385z" />
<glyph unicode="&#xbd;" horiz-adv-x="1595" d="M92 717v57q51 0 82 5t48.5 15.5t23.5 26t6 35.5v496q0 41 -27.5 61.5t-120.5 20.5v57l254 45h19v-680q0 -20 6 -35.5t22.5 -26t48 -15.5t85.5 -5l4 -10l-4 -47h-447zM238 0l862 1536h92l-862 -1536h-92zM817 0v53q92 51 176 94t154 101q68 55 109.5 128t41.5 187 q0 57 -17 97t-45 65t-64.5 36t-73.5 11q-29 0 -57.5 -5t-51.5 -15l-8 -11l-25 -143l-8 -6q-41 0 -72.5 21.5t-31.5 68.5q0 39 25.5 66.5t63.5 45t84 24.5t87 7q94 0 156.5 -21.5t100.5 -58t54.5 -85t16.5 -99.5q0 -94 -37 -158.5t-92.5 -113.5t-120 -87t-119.5 -81v-15h254 q25 0 47 3.5t41.5 15.5t37 34.5t34.5 61.5h20l6 -10l-28 -211h-658z" />
<glyph unicode="&#xbe;" horiz-adv-x="1533" d="M82 852q0 45 37 67.5t67 22.5l9 -8l24 -131l8 -10q29 -12 59.5 -17.5t59.5 -5.5q109 0 174.5 51t65.5 129q0 86 -67.5 133t-188.5 47q-47 0 -99 -10l-2 60q166 16 241 60t75 116q0 74 -55.5 105.5t-124.5 31.5q-63 0 -113 -20l-8 -11l-25 -139l-10 -8q-14 0 -32.5 6 t-34 17.5t-26 27.5t-10.5 39q0 39 25 66.5t62.5 44t84 23.5t87.5 7q90 0 150 -14t97 -40t53.5 -60.5t16.5 -75.5q0 -23 -9 -50.5t-35 -52t-74 -43t-124 -20.5v-10q86 -4 141.5 -24.5t87 -52.5t43 -69t11.5 -69q0 -47 -22.5 -92.5t-69.5 -81t-122 -58t-179 -22.5q-43 0 -88 7 t-80 23.5t-57.5 43t-22.5 67.5zM346 0l862 1536h92l-862 -1536h-92zM748 223v33l456 563h82v-504h156l-15 -92h-141v-84q0 -41 26.5 -62.5t117.5 -21.5l4 -10l-4 -45h-400v55q86 0 112.5 21.5t26.5 62.5v84h-421zM858 315h311v385z" />
<glyph unicode="&#xbf;" horiz-adv-x="997" d="M113 -279q0 88 44 157t109.5 125t143 104.5t143 98.5t110 103t44.5 121q0 41 -12.5 68.5t-31 45t-41 24.5t-40.5 7q-86 0 -126 -51t-24 -127l-20 -12q-33 12 -52.5 44t-19.5 73q0 31 15.5 59.5t42 51t64.5 36t81 13.5q27 0 69.5 -9.5t81.5 -35t68 -73.5t29 -124 q0 -82 -37 -147.5t-92.5 -123t-120 -108.5t-119.5 -103.5t-92 -109.5t-37 -127q0 -72 24.5 -117t63.5 -70.5t84 -35.5t88 -10q53 0 90 10l14 10l58 256l14 12q57 0 106.5 -33.5t49.5 -103.5q0 -66 -37 -108.5t-94.5 -67.5t-124 -35t-123.5 -10q-80 0 -150.5 17.5t-125 56.5 t-86 100t-31.5 149zM430 1001q0 55 40 95.5t95 40.5q53 0 94 -40.5t41 -95.5t-41 -95t-94 -40q-55 0 -95 40t-40 95z" />
<glyph unicode="&#xc0;" horiz-adv-x="1499" d="M25 0v51l75 29q51 20 70.5 52t34.5 67l459 1235l176 22l12 -10l430 -1243q10 -33 33.5 -67t79.5 -52l80 -27v-57h-580v53l127 37q33 10 45 22.5t12 30.5q0 12 -5 32t-11 38l-121 358h-493l-123 -364q-4 -16 -9.5 -32.5t-5.5 -31.5q0 -18 10.5 -33.5t34.5 -21.5l138 -35 v-53h-469zM416 1845q2 33 7 56.5t24 44.5q33 35 90 47l356 -402l-12 -37l-39 -16zM477 657h434l-215 641z" />
<glyph unicode="&#xc1;" horiz-adv-x="1499" d="M25 0v51l75 29q51 20 70.5 52t34.5 67l459 1235l176 22l12 -10l430 -1243q10 -33 33.5 -67t79.5 -52l80 -27v-57h-580v53l127 37q33 10 45 22.5t12 30.5q0 12 -5 32t-11 38l-121 358h-493l-123 -364q-4 -16 -9.5 -32.5t-5.5 -31.5q0 -18 10.5 -33.5t34.5 -21.5l138 -35 v-53h-469zM477 657h434l-215 641zM563 1591l356 402q57 -12 90 -47q18 -20 23.5 -44t7.5 -57l-426 -307l-39 16z" />
<glyph unicode="&#xc2;" horiz-adv-x="1499" d="M25 0v51l75 29q51 20 70.5 52t34.5 67l459 1235l176 22l12 -10l430 -1243q10 -33 33.5 -67t79.5 -52l80 -27v-57h-580v53l127 37q33 10 45 22.5t12 30.5q0 12 -5 32t-11 38l-121 358h-493l-123 -364q-4 -16 -9.5 -32.5t-5.5 -31.5q0 -18 10.5 -33.5t34.5 -21.5l138 -35 v-53h-469zM440 1581l250 401q27 10 59 11q31 0 58 -11l249 -401l-20 -35l-41 -8l-248 274l-246 -274l-41 8zM477 657h434l-215 641z" />
<glyph unicode="&#xc3;" horiz-adv-x="1499" d="M25 0v51l75 29q51 20 70.5 52t34.5 67l459 1235l176 22l12 -10l430 -1243q10 -33 33.5 -67t79.5 -52l80 -27v-57h-580v53l127 37q33 10 45 22.5t12 30.5q0 12 -5 32t-11 38l-121 358h-493l-123 -364q-4 -16 -9.5 -32.5t-5.5 -31.5q0 -18 10.5 -33.5t34.5 -21.5l138 -35 v-53h-469zM342 1597q16 33 38.5 66t48.5 60.5t56.5 47t65.5 27.5q45 0 95 -14.5t99.5 -30.5t97.5 -30.5t91 -14.5q55 0 101 34t87 77l35 -25q-16 -37 -39.5 -74t-51.5 -67.5t-59.5 -53t-68.5 -30.5q-47 0 -96.5 14t-98.5 30.5t-96 31t-92 14.5q-51 0 -92 -24.5t-82 -65.5z M477 657h434l-215 641z" />
<glyph unicode="&#xc4;" horiz-adv-x="1499" d="M25 0v51l75 29q51 20 70.5 52t34.5 67l459 1235l176 22l12 -10l430 -1243q10 -33 33.5 -67t79.5 -52l80 -27v-57h-580v53l127 37q33 10 45 22.5t12 30.5q0 12 -5 32t-11 38l-121 358h-493l-123 -364q-4 -16 -9.5 -32.5t-5.5 -31.5q0 -18 10.5 -33.5t34.5 -21.5l138 -35 v-53h-469zM440 1675q0 53 38 90t89 37q53 0 90 -36.5t37 -90.5q0 -53 -37 -90t-90 -37q-51 0 -89 37t-38 90zM477 657h434l-215 641zM804 1675q0 53 38 90t89 37q53 0 90 -36.5t37 -90.5q0 -53 -37 -90t-90 -37q-51 0 -89 37t-38 90z" />
<glyph unicode="&#xc5;" horiz-adv-x="1499" d="M25 0v51l75 29q51 20 70.5 52t34.5 67l452 1220q-76 29 -124 97.5t-48 156.5q0 55 21.5 104.5t58.5 86.5t86 58.5t105 21.5q55 0 104 -21.5t86 -58.5t58.5 -86t21.5 -105q0 -86 -47 -153.5t-119 -96.5l422 -1220q10 -33 33.5 -67t79.5 -52l80 -27v-57h-580v53l127 37 q33 10 45 22.5t12 30.5q0 12 -5 32t-11 38l-121 358h-493l-123 -364q-4 -16 -9.5 -32.5t-5.5 -31.5q0 -18 10.5 -33.5t34.5 -21.5l138 -35v-53h-469zM477 657h434l-215 641zM578 1673q0 -37 14 -69.5t38.5 -57t56.5 -38t69 -13.5t68.5 13.5t56 38t39 57t14.5 69.5t-14.5 69 t-39 56.5t-56 38.5t-68.5 14t-69 -14t-56.5 -38.5t-38.5 -56.5t-14 -69z" />
<glyph unicode="&#xc6;" horiz-adv-x="1888" d="M25 0v51l47 21q51 20 82.5 54t50.5 73l534 1149q-18 4 -39.5 7t-50.5 3v76h1041l26 -19l-74 -303l-14 -10h-26q-14 135 -83 195.5t-198 60.5h-121q-102 0 -139 -38t-37 -108v-452h276q39 0 68 9t47.5 34.5t27.5 68.5t9 111h70v-494l-54 -8l-16 8q0 113 -38 153t-114 40 h-276v-461q0 -70 34 -107.5t122 -37.5h204q37 0 85.5 8t99.5 34.5t101 76t89 131.5l29 -7l8 -18l-82 -301h-1065v76q104 0 143 37t39 108v350h-335l-168 -364q-8 -16 -12.5 -30.5t-4.5 -31.5q0 -20 10.5 -35.5t36.5 -21.5l136 -35v-53h-469zM524 657h307v555q0 43 -14 72z " />
<glyph unicode="&#xc7;" horiz-adv-x="1449" d="M92 715q0 186 62.5 327.5t171 234.5t256 140t317.5 47q33 0 78 -4t90 -10t85 -10t67 -4q43 0 69.5 8t40.5 18l17 -18l-72 -326l-14 -10h-27q-8 70 -42 120t-85 82.5t-114.5 48t-133.5 15.5q-121 0 -221 -46t-172 -132t-112 -208t-40 -273q0 -150 40 -270.5t113 -204.5 t174 -130.5t222 -46.5q51 0 114.5 7.5t128 34t125 80t105.5 145.5l35 -15l8 -18l-67 -256q-29 -16 -79 -28.5t-107.5 -22.5t-116 -15.5t-103.5 -5.5h-14q-27 -29 -27 -90q0 -49 33 -78.5t72 -60.5t71.5 -72t32.5 -108q0 -72 -65.5 -124t-171.5 -52q-111 0 -167.5 37.5 t-56.5 93.5q0 27 10.5 45t25 28.5t26.5 15.5t16 5q0 -47 15.5 -80t39 -53.5t52 -29.5t57.5 -9q43 0 79 17.5t36 51.5q0 33 -32 62t-69 62.5t-68.5 74.5t-31.5 100t19.5 100.5t41.5 65.5q-158 10 -293 61.5t-233 143.5t-154.5 227.5t-56.5 311.5z" />
<glyph unicode="&#xc8;" horiz-adv-x="1341" d="M102 0v76q104 0 143.5 37t39.5 108v991q0 72 -39 109t-144 37v76h1041l26 -19l-73 -303l-15 -10h-26q-14 135 -83 195.5t-198 60.5h-121q-102 0 -139 -38t-37 -108v-450h277q39 0 67.5 9t47 33.5t27.5 67.5t9 111h70v-494l-53 -8l-17 8q0 113 -37 152t-114 39h-277v-459 q0 -70 34 -107.5t122 -37.5h205q37 0 85 8t99 34.5t101.5 76t88.5 131.5l29 -7l8 -18l-82 -301h-1065zM432 1845q2 33 7 56.5t24 44.5q33 35 90 47l356 -402l-12 -37l-39 -16z" />
<glyph unicode="&#xc9;" horiz-adv-x="1341" d="M102 0v76q104 0 143.5 37t39.5 108v991q0 72 -39 109t-144 37v76h1041l26 -19l-73 -303l-15 -10h-26q-14 135 -83 195.5t-198 60.5h-121q-102 0 -139 -38t-37 -108v-450h277q39 0 67.5 9t47 33.5t27.5 67.5t9 111h70v-494l-53 -8l-17 8q0 113 -37 152t-114 39h-277v-459 q0 -70 34 -107.5t122 -37.5h205q37 0 85 8t99 34.5t101.5 76t88.5 131.5l29 -7l8 -18l-82 -301h-1065zM510 1591l356 402q57 -12 90 -47q18 -20 23.5 -44t7.5 -57l-426 -307l-39 16z" />
<glyph unicode="&#xca;" horiz-adv-x="1341" d="M102 0v76q104 0 143.5 37t39.5 108v991q0 72 -39 109t-144 37v76h1041l26 -19l-73 -303l-15 -10h-26q-14 135 -83 195.5t-198 60.5h-121q-102 0 -139 -38t-37 -108v-450h277q39 0 67.5 9t47 33.5t27.5 67.5t9 111h70v-494l-53 -8l-17 8q0 113 -37 152t-114 39h-277v-459 q0 -70 34 -107.5t122 -37.5h205q37 0 85 8t99 34.5t101.5 76t88.5 131.5l29 -7l8 -18l-82 -301h-1065zM363 1581l250 401q27 10 59 11q31 0 58 -11l249 -401l-20 -35l-41 -8l-248 274l-246 -274l-41 8z" />
<glyph unicode="&#xcb;" horiz-adv-x="1341" d="M102 0v76q104 0 143.5 37t39.5 108v991q0 72 -39 109t-144 37v76h1041l26 -19l-73 -303l-15 -10h-26q-14 135 -83 195.5t-198 60.5h-121q-102 0 -139 -38t-37 -108v-450h277q39 0 67.5 9t47 33.5t27.5 67.5t9 111h70v-494l-53 -8l-17 8q0 113 -37 152t-114 39h-277v-459 q0 -70 34 -107.5t122 -37.5h205q37 0 85 8t99 34.5t101.5 76t88.5 131.5l29 -7l8 -18l-82 -301h-1065zM401 1675q0 53 38 90t89 37q53 0 90 -36.5t37 -90.5q0 -53 -37 -90t-90 -37q-51 0 -89 37t-38 90zM765 1675q0 53 38 90t89 37q53 0 90 -36.5t37 -90.5q0 -53 -37 -90 t-90 -37q-51 0 -89 37t-38 90z" />
<glyph unicode="&#xcc;" horiz-adv-x="774" d="M102 0v76q104 0 143.5 37t39.5 108v991q0 72 -39 109t-144 37v76h562l8 -60l-8 -16q-111 0 -149 -37t-38 -109v-991q0 -72 38 -108.5t149 -36.5l8 -17l-8 -59h-562zM148 1845q2 33 7 56.5t24 44.5q33 35 90 47l356 -402l-12 -37l-39 -16z" />
<glyph unicode="&#xcd;" horiz-adv-x="774" d="M102 0v76q104 0 143.5 37t39.5 108v991q0 72 -39 109t-144 37v76h562l8 -60l-8 -16q-111 0 -149 -37t-38 -109v-991q0 -72 38 -108.5t149 -36.5l8 -17l-8 -59h-562zM193 1591l356 402q57 -12 90 -47q18 -20 23.5 -44t7.5 -57l-426 -307l-39 16z" />
<glyph unicode="&#xce;" horiz-adv-x="774" d="M82 1581l250 401q27 10 59 11q31 0 58 -11l249 -401l-20 -35l-41 -8l-248 274l-246 -274l-41 8zM102 0v76q104 0 143.5 37t39.5 108v991q0 72 -39 109t-144 37v76h562l8 -60l-8 -16q-111 0 -149 -37t-38 -109v-991q0 -72 38 -108.5t149 -36.5l8 -17l-8 -59h-562z" />
<glyph unicode="&#xcf;" horiz-adv-x="774" d="M80 1675q0 53 38 90t89 37q53 0 90 -36.5t37 -90.5q0 -53 -37 -90t-90 -37q-51 0 -89 37t-38 90zM102 0v76q104 0 143.5 37t39.5 108v991q0 72 -39 109t-144 37v76h562l8 -60l-8 -16q-111 0 -149 -37t-38 -109v-991q0 -72 38 -108.5t149 -36.5l8 -17l-8 -59h-562z M444 1675q0 53 38 90t89 37q53 0 90 -36.5t37 -90.5q0 -53 -37 -90t-90 -37q-51 0 -89 37t-38 90z" />
<glyph unicode="&#xd0;" horiz-adv-x="1640" d="M102 674l21 88h180v450q0 72 -39 109t-143 37v76q180 0 341 5t292 5q168 0 315.5 -46t256 -138.5t171 -228.5t62.5 -316q0 -178 -62.5 -314.5t-171 -227.5t-256 -137t-317.5 -46q-129 0 -289 5t-342 5v76q104 0 143 37t39 108v453h-201zM496 221q0 -72 36.5 -108.5 t139.5 -36.5h80q152 0 262 45t183 129t107.5 201.5t34.5 263.5q0 145 -34.5 264t-106.5 203t-182.5 130t-261.5 46h-103q-92 -2 -123.5 -41t-31.5 -105v-450h290l-20 -88h-270v-453z" />
<glyph unicode="&#xd1;" horiz-adv-x="1755" d="M102 0v76q104 0 143.5 37t39.5 108v1000q0 63 -39 100t-144 37v76h404l862 -1072v850q0 35 -9 63t-34 46t-68 27.5t-108 9.5v76h506l8 -60l-8 -16q-111 0 -149 -37t-38 -109v-1212h-71l-1010 1227v-1006q0 -35 9.5 -62.5t34 -46t68.5 -27.5t113 -9l9 -17l-9 -59h-510z M469 1597q16 33 38.5 66t48.5 60.5t56.5 47t65.5 27.5q45 0 95 -14.5t99.5 -30.5t97.5 -30.5t91 -14.5q55 0 101 34t87 77l35 -25q-16 -37 -39.5 -74t-51.5 -67.5t-59.5 -53t-68.5 -30.5q-47 0 -96.5 14t-98.5 30.5t-96 31t-92 14.5q-51 0 -92 -24.5t-82 -65.5z" />
<glyph unicode="&#xd2;" horiz-adv-x="1650" d="M82 713q0 170 54 308t152.5 236.5t234.5 152.5t300 54t301.5 -54t235.5 -152.5t153.5 -236.5t55.5 -308q0 -168 -55.5 -305.5t-153.5 -234.5t-235.5 -150.5t-301.5 -53.5t-300 53.5t-234.5 150.5t-152.5 234.5t-54 305.5zM303 713q0 -139 34 -259t100.5 -208 t163.5 -138.5t224 -50.5t224.5 50.5t164 138.5t100.5 207.5t34 261.5q0 141 -34 262t-100.5 210t-164 139t-224.5 50t-224 -51t-163.5 -140t-100.5 -210t-34 -262zM586 1845q2 33 7 56.5t24 44.5q33 35 90 47l356 -402l-12 -37l-39 -16z" />
<glyph unicode="&#xd3;" horiz-adv-x="1650" d="M82 713q0 170 54 308t152.5 236.5t234.5 152.5t300 54t301.5 -54t235.5 -152.5t153.5 -236.5t55.5 -308q0 -168 -55.5 -305.5t-153.5 -234.5t-235.5 -150.5t-301.5 -53.5t-300 53.5t-234.5 150.5t-152.5 234.5t-54 305.5zM303 713q0 -139 34 -259t100.5 -208 t163.5 -138.5t224 -50.5t224.5 50.5t164 138.5t100.5 207.5t34 261.5q0 141 -34 262t-100.5 210t-164 139t-224.5 50t-224 -51t-163.5 -140t-100.5 -210t-34 -262zM715 1591l356 402q57 -12 90 -47q18 -20 23.5 -44t7.5 -57l-426 -307l-39 16z" />
<glyph unicode="&#xd4;" horiz-adv-x="1650" d="M82 713q0 170 54 308t152.5 236.5t234.5 152.5t300 54t301.5 -54t235.5 -152.5t153.5 -236.5t55.5 -308q0 -168 -55.5 -305.5t-153.5 -234.5t-235.5 -150.5t-301.5 -53.5t-300 53.5t-234.5 150.5t-152.5 234.5t-54 305.5zM303 713q0 -139 34 -259t100.5 -208 t163.5 -138.5t224 -50.5t224.5 50.5t164 138.5t100.5 207.5t34 261.5q0 141 -34 262t-100.5 210t-164 139t-224.5 50t-224 -51t-163.5 -140t-100.5 -210t-34 -262zM516 1581l250 401q27 10 59 11q31 0 58 -11l249 -401l-20 -35l-41 -8l-248 274l-246 -274l-41 8z" />
<glyph unicode="&#xd5;" horiz-adv-x="1650" d="M82 713q0 170 54 308t152.5 236.5t234.5 152.5t300 54t301.5 -54t235.5 -152.5t153.5 -236.5t55.5 -308q0 -168 -55.5 -305.5t-153.5 -234.5t-235.5 -150.5t-301.5 -53.5t-300 53.5t-234.5 150.5t-152.5 234.5t-54 305.5zM303 713q0 -139 34 -259t100.5 -208 t163.5 -138.5t224 -50.5t224.5 50.5t164 138.5t100.5 207.5t34 261.5q0 141 -34 262t-100.5 210t-164 139t-224.5 50t-224 -51t-163.5 -140t-100.5 -210t-34 -262zM418 1597q16 33 38.5 66t48.5 60.5t56.5 47t65.5 27.5q45 0 95 -14.5t99.5 -30.5t97.5 -30.5t91 -14.5 q55 0 101 34t87 77l35 -25q-16 -37 -39.5 -74t-51.5 -67.5t-59.5 -53t-68.5 -30.5q-47 0 -96.5 14t-98.5 30.5t-96 31t-92 14.5q-51 0 -92 -24.5t-82 -65.5z" />
<glyph unicode="&#xd6;" horiz-adv-x="1650" d="M82 713q0 170 54 308t152.5 236.5t234.5 152.5t300 54t301.5 -54t235.5 -152.5t153.5 -236.5t55.5 -308q0 -168 -55.5 -305.5t-153.5 -234.5t-235.5 -150.5t-301.5 -53.5t-300 53.5t-234.5 150.5t-152.5 234.5t-54 305.5zM303 713q0 -139 34 -259t100.5 -208 t163.5 -138.5t224 -50.5t224.5 50.5t164 138.5t100.5 207.5t34 261.5q0 141 -34 262t-100.5 210t-164 139t-224.5 50t-224 -51t-163.5 -140t-100.5 -210t-34 -262zM516 1675q0 53 38 90t89 37q53 0 90 -36.5t37 -90.5q0 -53 -37 -90t-90 -37q-51 0 -89 37t-38 90zM880 1675 q0 53 38 90t89 37q53 0 90 -36.5t37 -90.5q0 -53 -37 -90t-90 -37q-51 0 -89 37t-38 90z" />
<glyph unicode="&#xd7;" horiz-adv-x="1251" d="M113 111l424 424l-424 426l88 88l424 -426l426 426l88 -88l-426 -426l426 -424l-88 -88l-426 423l-424 -423z" />
<glyph unicode="&#xd8;" horiz-adv-x="1650" d="M82 713q0 170 54 308t152.5 236.5t234.5 152.5t300 54q188 0 342 -71l80 139l72 -41l-80 -137q154 -96 243 -260t89 -381q0 -168 -55.5 -305.5t-153.5 -234.5t-235.5 -150.5t-301.5 -53.5q-190 0 -344 72l-73 -129l-72 41l74 127q-154 94 -240 256t-86 377zM303 713 q0 -160 43 -292t129 -222l631 1091q-59 41 -128 63.5t-153 22.5q-127 0 -224 -51t-163.5 -140t-100.5 -210t-34 -262zM539 143q121 -86 286 -86q127 0 224.5 50.5t164 138.5t100.5 207.5t34 261.5q0 162 -45.5 296t-133.5 224z" />
<glyph unicode="&#xd9;" horiz-adv-x="1669" d="M92 1358v76h586l8 -60l-8 -16q-63 0 -103 -10.5t-64 -29t-32 -46t-8 -62.5v-659q0 -147 29.5 -239.5t84 -144.5t127 -71.5t158.5 -19.5q88 0 164 21.5t130.5 74.5t85 145.5t30.5 233.5v659q0 72 -41 110t-145 38v76h475l8 -60l-8 -16q-111 0 -149 -38t-38 -110v-641 q0 -188 -54 -305t-134 -182.5t-172 -89t-166 -23.5q-100 0 -203.5 23.5t-187.5 88t-137.5 180.5t-53.5 300v649q0 72 -38.5 110t-143.5 38zM596 1845q2 33 7 56.5t24 44.5q33 35 90 47l356 -402l-12 -37l-39 -16z" />
<glyph unicode="&#xda;" horiz-adv-x="1669" d="M92 1358v76h586l8 -60l-8 -16q-63 0 -103 -10.5t-64 -29t-32 -46t-8 -62.5v-659q0 -147 29.5 -239.5t84 -144.5t127 -71.5t158.5 -19.5q88 0 164 21.5t130.5 74.5t85 145.5t30.5 233.5v659q0 72 -41 110t-145 38v76h475l8 -60l-8 -16q-111 0 -149 -38t-38 -110v-641 q0 -188 -54 -305t-134 -182.5t-172 -89t-166 -23.5q-100 0 -203.5 23.5t-187.5 88t-137.5 180.5t-53.5 300v649q0 72 -38.5 110t-143.5 38zM725 1591l356 402q57 -12 90 -47q18 -20 23.5 -44t7.5 -57l-426 -307l-39 16z" />
<glyph unicode="&#xdb;" horiz-adv-x="1669" d="M92 1358v76h586l8 -60l-8 -16q-63 0 -103 -10.5t-64 -29t-32 -46t-8 -62.5v-659q0 -147 29.5 -239.5t84 -144.5t127 -71.5t158.5 -19.5q88 0 164 21.5t130.5 74.5t85 145.5t30.5 233.5v659q0 72 -41 110t-145 38v76h475l8 -60l-8 -16q-111 0 -149 -38t-38 -110v-641 q0 -188 -54 -305t-134 -182.5t-172 -89t-166 -23.5q-100 0 -203.5 23.5t-187.5 88t-137.5 180.5t-53.5 300v649q0 72 -38.5 110t-143.5 38zM576 1581l250 401q27 10 59 11q31 0 58 -11l249 -401l-20 -35l-41 -8l-248 274l-246 -274l-41 8z" />
<glyph unicode="&#xdc;" horiz-adv-x="1669" d="M92 1358v76h586l8 -60l-8 -16q-63 0 -103 -10.5t-64 -29t-32 -46t-8 -62.5v-659q0 -147 29.5 -239.5t84 -144.5t127 -71.5t158.5 -19.5q88 0 164 21.5t130.5 74.5t85 145.5t30.5 233.5v659q0 72 -41 110t-145 38v76h475l8 -60l-8 -16q-111 0 -149 -38t-38 -110v-641 q0 -188 -54 -305t-134 -182.5t-172 -89t-166 -23.5q-100 0 -203.5 23.5t-187.5 88t-137.5 180.5t-53.5 300v649q0 72 -38.5 110t-143.5 38zM565 1675q0 53 38 90t89 37q53 0 90 -36.5t37 -90.5q0 -53 -37 -90t-90 -37q-51 0 -89 37t-38 90zM929 1675q0 53 38 90t89 37 q53 0 90 -36.5t37 -90.5q0 -53 -37 -90t-90 -37q-51 0 -89 37t-38 90z" />
<glyph unicode="&#xdd;" horiz-adv-x="1359" d="M41 1376v58h582v-54l-127 -37q-35 -10 -49.5 -26.5t-14.5 -34.5q0 -27 17 -61l270 -553l305 559q10 20 14 33.5t4 23.5q0 20 -10 36.5t-39 25.5l-137 34v54h463v-52l-76 -28q-39 -16 -62.5 -52t-41.5 -67l-369 -641v-373q0 -35 8 -62.5t30.5 -46t60.5 -27.5t98 -9l8 -17 l-8 -59h-582v76q113 0 153 37t40 108v359l-345 651q-20 37 -45.5 70.5t-66.5 48.5zM518 1591l356 402q57 -12 90 -47q18 -20 23.5 -44t7.5 -57l-426 -307l-39 16z" />
<glyph unicode="&#xde;" horiz-adv-x="1294" d="M102 0v76q104 0 143.5 37t39.5 108v991q0 72 -39 109t-144 37v76h562l8 -60l-8 -16q-111 0 -149 -37t-38 -109v-106q41 2 82 3t84 1q104 0 205.5 -13.5t182.5 -54.5t131 -115.5t50 -197.5q0 -125 -58 -204t-150.5 -124t-207 -61t-225.5 -16h-48t-46 2v-105 q0 -72 38 -108.5t149 -36.5l8 -17l-8 -59h-562zM477 406q115 0 212 10t167 44t109 97.5t39 167.5t-39 164.5t-109 91.5t-166 39t-213 8v-622z" />
<glyph unicode="&#xdf;" horiz-adv-x="1480" d="M72 0v72q98 0 135 36.5t37 108.5v707h-172v51l172 49v104q0 98 24.5 176t79.5 133.5t146.5 85t224.5 29.5q68 0 141.5 -15t136 -46t103.5 -79t41 -114q0 -39 -16.5 -69.5t-42 -59t-55.5 -58.5t-55.5 -66.5t-42 -81.5t-16.5 -105q0 -72 37 -116t91.5 -76.5t118 -62.5 t117.5 -68.5t91 -97t37 -148.5q0 -68 -31 -125.5t-84 -99t-123.5 -65.5t-150.5 -24q-55 0 -144.5 12.5t-191.5 65.5l-12 232l16 12l57 4q0 -61 27 -107.5t68 -76t89 -45t91 -15.5q33 0 69.5 8.5t67.5 29t51.5 54t20.5 87.5q0 57 -35 96t-88 70.5t-114.5 63.5t-115 76 t-88 105.5t-34.5 155.5q0 59 19 107t48 88t62.5 76t62.5 70t48.5 70.5t19.5 81.5q0 27 -15.5 56.5t-50.5 54.5t-95.5 40t-148.5 15q-41 0 -89 -9t-89 -36.5t-69.5 -76t-28.5 -123.5v-1217h-352z" />
<glyph unicode="&#xe0;" horiz-adv-x="1007" d="M74 238q0 70 28.5 120t75.5 82.5t107.5 52t122 29.5t119 12.5t100.5 2.5v225q0 92 -71 148.5t-234 56.5l-15 -11l-63 -241l-15 -13q-12 0 -32.5 8.5t-40 25t-35 41t-15.5 57.5q0 51 32 92t83 67.5t115.5 41t132.5 14.5q172 0 253 -77t81 -218v-510q0 -92 46 -127t126 -35 l6 -12l-8 -23q-41 -43 -90 -57.5t-82 -14.5q-43 0 -76 18.5t-54.5 47.5t-32.5 63.5t-11 69.5h-9q-2 -12 -16 -45t-45 -66.5t-82 -60.5t-127 -27q-129 0 -201.5 69t-72.5 194zM242 1520q8 31 17 52t32 38q23 16 45 21t53 5l266 -465l-20 -34l-41 -9zM264 246q0 -45 15.5 -73 t40 -43t52 -21.5t52.5 -6.5q63 0 120.5 42t82.5 114v227q-45 0 -107.5 -8t-119 -34.5t-96.5 -73.5t-40 -123z" />
<glyph unicode="&#xe1;" horiz-adv-x="1007" d="M74 238q0 70 28.5 120t75.5 82.5t107.5 52t122 29.5t119 12.5t100.5 2.5v225q0 92 -71 148.5t-234 56.5l-15 -11l-63 -241l-15 -13q-12 0 -32.5 8.5t-40 25t-35 41t-15.5 57.5q0 51 32 92t83 67.5t115.5 41t132.5 14.5q172 0 253 -77t81 -218v-510q0 -92 46 -127t126 -35 l6 -12l-8 -23q-41 -43 -90 -57.5t-82 -14.5q-43 0 -76 18.5t-54.5 47.5t-32.5 63.5t-11 69.5h-9q-2 -12 -16 -45t-45 -66.5t-82 -60.5t-127 -27q-129 0 -201.5 69t-72.5 194zM264 246q0 -45 15.5 -73t40 -43t52 -21.5t52.5 -6.5q63 0 120.5 42t82.5 114v227q-45 0 -107.5 -8 t-119 -34.5t-96.5 -73.5t-40 -123zM367 1171l266 465q31 0 53.5 -5t44.5 -21q23 -16 32 -38t17 -52l-352 -392l-41 9z" />
<glyph unicode="&#xe2;" horiz-adv-x="1007" d="M74 238q0 70 28.5 120t75.5 82.5t107.5 52t122 29.5t119 12.5t100.5 2.5v225q0 92 -71 148.5t-234 56.5l-15 -11l-63 -241l-15 -13q-12 0 -32.5 8.5t-40 25t-35 41t-15.5 57.5q0 51 32 92t83 67.5t115.5 41t132.5 14.5q172 0 253 -77t81 -218v-510q0 -92 46 -127t126 -35 l6 -12l-8 -23q-41 -43 -90 -57.5t-82 -14.5q-43 0 -76 18.5t-54.5 47.5t-32.5 63.5t-11 69.5h-9q-2 -12 -16 -45t-45 -66.5t-82 -60.5t-127 -27q-129 0 -201.5 69t-72.5 194zM150 1171l249 463q27 10 60 11q31 0 57 -11l250 -463l-20 -34l-41 -9l-248 336l-246 -336l-41 9z M264 246q0 -45 15.5 -73t40 -43t52 -21.5t52.5 -6.5q63 0 120.5 42t82.5 114v227q-45 0 -107.5 -8t-119 -34.5t-96.5 -73.5t-40 -123z" />
<glyph unicode="&#xe3;" horiz-adv-x="1007" d="M74 238q0 70 28.5 120t75.5 82.5t107.5 52t122 29.5t119 12.5t100.5 2.5v225q0 92 -71 148.5t-234 56.5l-15 -11l-63 -241l-15 -13q-12 0 -32.5 8.5t-40 25t-35 41t-15.5 57.5q0 51 32 92t83 67.5t115.5 41t132.5 14.5q172 0 253 -77t81 -218v-510q0 -92 46 -127t126 -35 l6 -12l-8 -23q-41 -43 -90 -57.5t-82 -14.5q-43 0 -76 18.5t-54.5 47.5t-32.5 63.5t-11 69.5h-9q-2 -12 -16 -45t-45 -66.5t-82 -60.5t-127 -27q-129 0 -201.5 69t-72.5 194zM78 1208q16 33 38.5 66t48 60.5t56.5 47t66 27.5q45 0 95 -14.5t99 -30.5t97.5 -30.5t91.5 -14.5 q55 0 101 33.5t87 77.5l35 -25q-16 -37 -40 -74t-51.5 -67.5t-59.5 -53t-68 -30.5q-47 0 -96.5 14t-98.5 30.5t-96 31t-92 14.5q-51 0 -92 -24.5t-82 -65.5zM264 246q0 -45 15.5 -73t40 -43t52 -21.5t52.5 -6.5q63 0 120.5 42t82.5 114v227q-45 0 -107.5 -8t-119 -34.5 t-96.5 -73.5t-40 -123z" />
<glyph unicode="&#xe4;" horiz-adv-x="1007" d="M74 238q0 70 28.5 120t75.5 82.5t107.5 52t122 29.5t119 12.5t100.5 2.5v225q0 92 -71 148.5t-234 56.5l-15 -11l-63 -241l-15 -13q-12 0 -32.5 8.5t-40 25t-35 41t-15.5 57.5q0 51 32 92t83 67.5t115.5 41t132.5 14.5q172 0 253 -77t81 -218v-510q0 -92 46 -127t126 -35 l6 -12l-8 -23q-41 -43 -90 -57.5t-82 -14.5q-43 0 -76 18.5t-54.5 47.5t-32.5 63.5t-11 69.5h-9q-2 -12 -16 -45t-45 -66.5t-82 -60.5t-127 -27q-129 0 -201.5 69t-72.5 194zM174 1266q0 53 37.5 90t89.5 37q53 0 90 -37t37 -90t-37 -90t-90 -37q-51 0 -89 36.5t-38 90.5z M264 246q0 -45 15.5 -73t40 -43t52 -21.5t52.5 -6.5q63 0 120.5 42t82.5 114v227q-45 0 -107.5 -8t-119 -34.5t-96.5 -73.5t-40 -123zM538 1266q0 53 38 90t89 37q53 0 90 -37t37 -90t-37 -90t-90 -37q-51 0 -89 36.5t-38 90.5z" />
<glyph unicode="&#xe5;" horiz-adv-x="1007" d="M74 238q0 70 28.5 120t75.5 82.5t107.5 52t122 29.5t119 12.5t100.5 2.5v225q0 92 -71 148.5t-234 56.5l-15 -11l-63 -241l-15 -13q-12 0 -32.5 8.5t-40 25t-35 41t-15.5 57.5q0 51 32 92t83 67.5t115.5 41t132.5 14.5q172 0 253 -77t81 -218v-510q0 -92 46 -127t126 -35 l6 -12l-8 -23q-41 -43 -90 -57.5t-82 -14.5q-43 0 -76 18.5t-54.5 47.5t-32.5 63.5t-11 69.5h-9q-2 -12 -16 -45t-45 -66.5t-82 -60.5t-127 -27q-129 0 -201.5 69t-72.5 194zM193 1399q0 55 21.5 104t58 86t86 58.5t104.5 21.5t104.5 -21.5t86 -58.5t58 -86t21.5 -104 q0 -57 -21.5 -106.5t-58 -86.5t-86 -57.5t-104.5 -20.5t-104.5 20.5t-86 57.5t-58 86t-21.5 107zM264 246q0 -45 15.5 -73t40 -43t52 -21.5t52.5 -6.5q63 0 120.5 42t82.5 114v227q-45 0 -107.5 -8t-119 -34.5t-96.5 -73.5t-40 -123zM285 1399q0 -37 14 -70t39 -57.5 t56.5 -37.5t68.5 -13t68.5 13t56 37.5t39 57.5t14.5 70t-14.5 68.5t-39 56t-56 39t-68.5 14.5t-68.5 -14.5t-56.5 -39t-39 -56t-14 -68.5z" />
<glyph unicode="&#xe6;" horiz-adv-x="1615" d="M74 238q0 72 29.5 121t76.5 82.5t107.5 52t122 28.5t119 12.5t98.5 2.5v225q0 92 -71 148.5t-234 56.5l-15 -11l-63 -241l-15 -13q-12 0 -32.5 8.5t-40 25t-35 41t-15.5 57.5q0 53 32 93t83 67.5t118 41t138 13.5q113 0 188.5 -39t108.5 -113q76 78 170 115t180 37 q111 0 190 -30t129 -82t74.5 -123t24.5 -155h-731q-4 -29 -6 -54t-2 -60q0 -123 44 -203t105.5 -126t128 -64.5t113.5 -18.5q98 0 183 36t139 99l14 -6l16 -18q-61 -129 -171.5 -199t-252.5 -70q-72 0 -140.5 16.5t-126.5 50.5t-105.5 86t-77.5 126h-8q-4 -41 -25 -90 t-57.5 -91t-93 -70t-132.5 -28q-135 0 -208.5 69t-73.5 194zM264 246q0 -47 16.5 -75t42 -43t55.5 -20.5t54 -5.5q29 0 62.5 13.5t63.5 39t49.5 61.5t19.5 83v186q-43 0 -105.5 -8t-119 -33.5t-97.5 -72.5t-41 -125zM825 739h512q0 121 -61.5 175.5t-151.5 54.5 q-43 0 -90 -12.5t-89 -40t-74.5 -70.5t-45.5 -107z" />
<glyph unicode="&#xe7;" horiz-adv-x="1038" d="M70 498q0 145 49 249.5t122.5 171t159.5 98.5t158 32q98 0 169 -25t118 -62.5t69.5 -82.5t22.5 -88q0 -66 -40 -108t-95 -42l-19 12l-49 250l-4 6q-59 59 -172 60q-49 0 -104.5 -22.5t-101.5 -73t-76.5 -131t-30.5 -197.5q0 -123 38 -203t95 -126t123.5 -64.5 t124.5 -18.5q88 0 174 35t135 100l14 -4l19 -20q-57 -119 -155.5 -187.5t-217.5 -79.5q-16 -16 -25.5 -39.5t-9.5 -58.5q0 -49 33 -78.5t72 -60.5t71.5 -72t32.5 -108q0 -72 -65.5 -124t-172.5 -52q-111 0 -167 37.5t-56 93.5q0 27 10.5 45t24.5 28.5t26.5 15.5t16.5 5 q0 -47 15.5 -80t39 -53.5t52 -29.5t57.5 -9q45 0 80 17.5t35 51.5q0 33 -32 62t-69 62.5t-68.5 74.5t-31.5 100q0 61 19.5 103.5t43.5 66.5q-88 4 -171 36t-146.5 96.5t-102 161t-38.5 229.5z" />
<glyph unicode="&#xe8;" horiz-adv-x="1058" d="M70 498q0 147 49 251.5t122.5 171t160.5 97.5t165 31q111 0 190 -30t129 -82t74.5 -123t24.5 -155h-731q-4 -29 -6 -54t-2 -60q0 -123 43 -203t104.5 -126t129 -64.5t114.5 -18.5q98 0 183 36t138 99l15 -6l16 -18q-61 -129 -171.5 -199t-252.5 -70q-96 0 -186 30 t-158.5 93.5t-109.5 161.5t-41 238zM268 739h512q0 123 -60.5 176.5t-152.5 53.5q-43 0 -90 -12.5t-89 -40t-74.5 -70.5t-45.5 -107zM349 1520q8 31 17 52t32 38q23 16 45 21t53 5l266 -465l-20 -34l-41 -9z" />
<glyph unicode="&#xe9;" horiz-adv-x="1058" d="M70 498q0 147 49 251.5t122.5 171t160.5 97.5t165 31q111 0 190 -30t129 -82t74.5 -123t24.5 -155h-731q-4 -29 -6 -54t-2 -60q0 -123 43 -203t104.5 -126t129 -64.5t114.5 -18.5q98 0 183 36t138 99l15 -6l16 -18q-61 -129 -171.5 -199t-252.5 -70q-96 0 -186 30 t-158.5 93.5t-109.5 161.5t-41 238zM268 739h512q0 123 -60.5 176.5t-152.5 53.5q-43 0 -90 -12.5t-89 -40t-74.5 -70.5t-45.5 -107zM480 1171l266 465q31 0 53.5 -5t44.5 -21q23 -16 32 -38t17 -52l-352 -392l-41 9z" />
<glyph unicode="&#xea;" horiz-adv-x="1058" d="M70 498q0 147 49 251.5t122.5 171t160.5 97.5t165 31q111 0 190 -30t129 -82t74.5 -123t24.5 -155h-731q-4 -29 -6 -54t-2 -60q0 -123 43 -203t104.5 -126t129 -64.5t114.5 -18.5q98 0 183 36t138 99l15 -6l16 -18q-61 -129 -171.5 -199t-252.5 -70q-96 0 -186 30 t-158.5 93.5t-109.5 161.5t-41 238zM258 1171l249 463q27 10 60 11q31 0 57 -11l250 -463l-20 -34l-41 -9l-248 336l-246 -336l-41 9zM268 739h512q0 123 -60.5 176.5t-152.5 53.5q-43 0 -90 -12.5t-89 -40t-74.5 -70.5t-45.5 -107z" />
<glyph unicode="&#xeb;" horiz-adv-x="1058" d="M70 498q0 147 49 251.5t122.5 171t160.5 97.5t165 31q111 0 190 -30t129 -82t74.5 -123t24.5 -155h-731q-4 -29 -6 -54t-2 -60q0 -123 43 -203t104.5 -126t129 -64.5t114.5 -18.5q98 0 183 36t138 99l15 -6l16 -18q-61 -129 -171.5 -199t-252.5 -70q-96 0 -186 30 t-158.5 93.5t-109.5 161.5t-41 238zM265 1266q0 53 37.5 90t89.5 37q53 0 90 -37t37 -90t-37 -90t-90 -37q-51 0 -89 36.5t-38 90.5zM268 739h512q0 123 -60.5 176.5t-152.5 53.5q-43 0 -90 -12.5t-89 -40t-74.5 -70.5t-45.5 -107zM629 1266q0 53 38 90t89 37q53 0 90 -37 t37 -90t-37 -90t-90 -37q-51 0 -89 36.5t-38 90.5z" />
<glyph unicode="&#xec;" horiz-adv-x="679" d="M50 1520q8 31 17 52t32 38q23 16 45 21t53 5l266 -465l-20 -34l-41 -9zM72 0v72q98 0 135 37.5t37 113.5v617l-172 34v56l336 119l16 -15v-811q0 -76 37 -113.5t139 -37.5l8 -17l-8 -55h-528z" />
<glyph unicode="&#xed;" horiz-adv-x="679" d="M72 0v72q98 0 135 37.5t37 113.5v617l-172 34v56l336 119l16 -15v-811q0 -76 37 -113.5t139 -37.5l8 -17l-8 -55h-528zM189 1171l266 465q31 0 53.5 -5t44.5 -21q23 -16 32 -38t17 -52l-352 -392l-41 9z" />
<glyph unicode="&#xee;" horiz-adv-x="679" d="M35 1171l249 463q27 10 60 11q31 0 57 -11l250 -463l-20 -34l-41 -9l-248 336l-246 -336l-41 9zM72 0v72q98 0 135 37.5t37 113.5v617l-172 34v56l336 119l16 -15v-811q0 -76 37 -113.5t139 -37.5l8 -17l-8 -55h-528z" />
<glyph unicode="&#xef;" horiz-adv-x="679" d="M13 1266q0 53 37.5 90t89.5 37q53 0 90 -37t37 -90t-37 -90t-90 -37q-51 0 -89 36.5t-38 90.5zM72 0v72q98 0 135 37.5t37 113.5v617l-172 34v56l336 119l16 -15v-811q0 -76 37 -113.5t139 -37.5l8 -17l-8 -55h-528zM377 1266q0 53 38 90t89 37q53 0 90 -37t37 -90 t-37 -90t-90 -37q-51 0 -89 36.5t-38 90.5z" />
<glyph unicode="&#xf0;" d="M70 510q0 113 35.5 212t103 171t165 114t220.5 42q76 0 151 -17q-49 61 -108 117.5t-131 103.5l-250 -172l-23 86l195 133q-152 90 -328 142l31 96q121 -23 226.5 -59.5t199.5 -87.5l227 155l23 -86l-170 -117q113 -78 203 -175t153.5 -204.5t96 -222t32.5 -229.5 t-35.5 -212t-103.5 -170t-166 -114t-223 -41q-123 0 -220.5 41t-165 113t-103 169t-35.5 212zM272 512q0 -96 21.5 -180t61.5 -145.5t100.5 -97.5t138.5 -36q80 0 140.5 36t101.5 97.5t61.5 145.5t20.5 180q0 94 -20.5 178t-61.5 146.5t-101.5 98.5t-140.5 36 q-78 0 -138.5 -36t-101.5 -98.5t-61.5 -146.5t-20.5 -178z" />
<glyph unicode="&#xf1;" horiz-adv-x="1347" d="M72 0v72q98 0 135 37.5t37 113.5v617l-172 34v56l336 119l16 -15v-194h8q109 209 332 209q166 0 250 -95.5t84 -253.5v-477q0 -76 39 -113.5t129 -37.5l10 -17l-10 -55h-496v72q86 0 117 37.5t31 113.5v445q0 47 -10.5 92t-37 79.5t-71.5 56.5t-115 22q-25 0 -58.5 -6.5 t-70.5 -24t-71.5 -49t-59.5 -80.5v-535q0 -76 36 -113.5t134 -37.5l8 -17l-8 -55h-522zM267 1208q16 33 38.5 66t48 60.5t56.5 47t66 27.5q45 0 95 -14.5t99 -30.5t97.5 -30.5t91.5 -14.5q55 0 101 33.5t87 77.5l35 -25q-16 -37 -40 -74t-51.5 -67.5t-59.5 -53t-68 -30.5 q-47 0 -96.5 14t-98.5 30.5t-96 31t-92 14.5q-51 0 -92 -24.5t-82 -65.5z" />
<glyph unicode="&#xf2;" d="M70 508q0 113 35.5 212t103 173t166 116t221.5 42t221 -42t166 -116t103.5 -173t35.5 -212q0 -115 -35.5 -212t-103.5 -169t-166 -113t-221 -41t-221.5 41t-166 113t-103 169t-35.5 212zM272 510q0 -96 20.5 -180t61.5 -145.5t101.5 -97.5t140.5 -36t140.5 36t101.5 97.5 t61.5 145.5t20.5 180q0 94 -20.5 179t-61.5 147.5t-101.5 99.5t-140.5 37t-140.5 -37t-101.5 -99.5t-61.5 -147.5t-20.5 -179zM389 1520q8 31 17 52t32 38q23 16 45 21t53 5l266 -465l-20 -34l-41 -9z" />
<glyph unicode="&#xf3;" d="M70 508q0 113 35.5 212t103 173t166 116t221.5 42t221 -42t166 -116t103.5 -173t35.5 -212q0 -115 -35.5 -212t-103.5 -169t-166 -113t-221 -41t-221.5 41t-166 113t-103 169t-35.5 212zM272 510q0 -96 20.5 -180t61.5 -145.5t101.5 -97.5t140.5 -36t140.5 36t101.5 97.5 t61.5 145.5t20.5 180q0 94 -20.5 179t-61.5 147.5t-101.5 99.5t-140.5 37t-140.5 -37t-101.5 -99.5t-61.5 -147.5t-20.5 -179zM500 1171l266 465q31 0 53.5 -5t44.5 -21q23 -16 32 -38t17 -52l-352 -392l-41 9z" />
<glyph unicode="&#xf4;" d="M70 508q0 113 35.5 212t103 173t166 116t221.5 42t221 -42t166 -116t103.5 -173t35.5 -212q0 -115 -35.5 -212t-103.5 -169t-166 -113t-221 -41t-221.5 41t-166 113t-103 169t-35.5 212zM272 510q0 -96 20.5 -180t61.5 -145.5t101.5 -97.5t140.5 -36t140.5 36t101.5 97.5 t61.5 145.5t20.5 180q0 94 -20.5 179t-61.5 147.5t-101.5 99.5t-140.5 37t-140.5 -37t-101.5 -99.5t-61.5 -147.5t-20.5 -179zM287 1171l249 463q27 10 60 11q31 0 57 -11l250 -463l-20 -34l-41 -9l-248 336l-246 -336l-41 9z" />
<glyph unicode="&#xf5;" d="M70 508q0 113 35.5 212t103 173t166 116t221.5 42t221 -42t166 -116t103.5 -173t35.5 -212q0 -115 -35.5 -212t-103.5 -169t-166 -113t-221 -41t-221.5 41t-166 113t-103 169t-35.5 212zM189 1208q16 33 38.5 66t48 60.5t56.5 47t66 27.5q45 0 95 -14.5t99 -30.5 t97.5 -30.5t91.5 -14.5q55 0 101 33.5t87 77.5l35 -25q-16 -37 -40 -74t-51.5 -67.5t-59.5 -53t-68 -30.5q-47 0 -96.5 14t-98.5 30.5t-96 31t-92 14.5q-51 0 -92 -24.5t-82 -65.5zM272 510q0 -96 20.5 -180t61.5 -145.5t101.5 -97.5t140.5 -36t140.5 36t101.5 97.5 t61.5 145.5t20.5 180q0 94 -20.5 179t-61.5 147.5t-101.5 99.5t-140.5 37t-140.5 -37t-101.5 -99.5t-61.5 -147.5t-20.5 -179z" />
<glyph unicode="&#xf6;" d="M70 508q0 113 35.5 212t103 173t166 116t221.5 42t221 -42t166 -116t103.5 -173t35.5 -212q0 -115 -35.5 -212t-103.5 -169t-166 -113t-221 -41t-221.5 41t-166 113t-103 169t-35.5 212zM272 510q0 -96 20.5 -180t61.5 -145.5t101.5 -97.5t140.5 -36t140.5 36t101.5 97.5 t61.5 145.5t20.5 180q0 94 -20.5 179t-61.5 147.5t-101.5 99.5t-140.5 37t-140.5 -37t-101.5 -99.5t-61.5 -147.5t-20.5 -179zM287 1266q0 53 37.5 90t89.5 37q53 0 90 -37t37 -90t-37 -90t-90 -37q-51 0 -89 36.5t-38 90.5zM651 1266q0 53 38 90t89 37q53 0 90 -37t37 -90 t-37 -90t-90 -37q-51 0 -89 36.5t-38 90.5z" />
<glyph unicode="&#xf7;" horiz-adv-x="1304" d="M113 473v121h1079v-121h-1079zM535 135q0 51 37.5 88t86.5 37q51 0 88 -37t37 -88t-37 -88t-88 -37q-49 0 -86.5 37t-37.5 88zM535 934q0 51 37.5 88t86.5 37q51 0 88 -37t37 -88t-37 -88t-88 -37q-49 0 -86.5 37t-37.5 88z" />
<glyph unicode="&#xf8;" d="M70 508q0 113 35.5 212t103 173t166 116t221.5 42q131 0 240 -52l65 111l60 -35l-64 -110q109 -72 167 -191t58 -266q0 -115 -35.5 -212t-103.5 -169t-166 -113t-221 -41q-70 0 -130 13.5t-114 36.5l-59 -103l-60 35l60 102q-109 70 -166 186.5t-57 264.5zM272 510 q0 -207 88 -336l420 729q-37 33 -83 51.5t-101 18.5q-80 0 -140.5 -37t-101.5 -99.5t-61.5 -147.5t-20.5 -179zM410 121q76 -70 186 -70q80 0 140.5 36t101.5 97.5t61.5 145.5t20.5 180q0 100 -23 187t-68 151z" />
<glyph unicode="&#xf9;" horiz-adv-x="1318" d="M31 913l10 62l324 49h32v-657q0 -53 10.5 -100.5t37 -83.5t71.5 -57.5t115 -21.5q31 0 66.5 7.5t70.5 26t67.5 52t59.5 86.5v490q0 76 -37 103.5t-139 27.5l-8 16l8 60l321 51h35v-852l172 -35v-43l-336 -119l-16 15v180h-8q-106 -195 -336 -195q-166 0 -250 94.5 t-84 254.5v442q0 76 -40 103.5t-136 27.5zM453 1520q8 31 17 52t32 38q23 16 45 21t53 5l266 -465l-20 -34l-41 -9z" />
<glyph unicode="&#xfa;" horiz-adv-x="1318" d="M31 913l10 62l324 49h32v-657q0 -53 10.5 -100.5t37 -83.5t71.5 -57.5t115 -21.5q31 0 66.5 7.5t70.5 26t67.5 52t59.5 86.5v490q0 76 -37 103.5t-139 27.5l-8 16l8 60l321 51h35v-852l172 -35v-43l-336 -119l-16 15v180h-8q-106 -195 -336 -195q-166 0 -250 94.5 t-84 254.5v442q0 76 -40 103.5t-136 27.5zM498 1171l266 465q31 0 53.5 -5t44.5 -21q23 -16 32 -38t17 -52l-352 -392l-41 9z" />
<glyph unicode="&#xfb;" horiz-adv-x="1318" d="M31 913l10 62l324 49h32v-657q0 -53 10.5 -100.5t37 -83.5t71.5 -57.5t115 -21.5q31 0 66.5 7.5t70.5 26t67.5 52t59.5 86.5v490q0 76 -37 103.5t-139 27.5l-8 16l8 60l321 51h35v-852l172 -35v-43l-336 -119l-16 15v180h-8q-106 -195 -336 -195q-166 0 -250 94.5 t-84 254.5v442q0 76 -40 103.5t-136 27.5zM351 1171l249 463q27 10 60 11q31 0 57 -11l250 -463l-20 -34l-41 -9l-248 336l-246 -336l-41 9z" />
<glyph unicode="&#xfc;" horiz-adv-x="1318" d="M31 913l10 62l324 49h32v-657q0 -53 10.5 -100.5t37 -83.5t71.5 -57.5t115 -21.5q31 0 66.5 7.5t70.5 26t67.5 52t59.5 86.5v490q0 76 -37 103.5t-139 27.5l-8 16l8 60l321 51h35v-852l172 -35v-43l-336 -119l-16 15v180h-8q-106 -195 -336 -195q-166 0 -250 94.5 t-84 254.5v442q0 76 -40 103.5t-136 27.5zM351 1266q0 53 37.5 90t89.5 37q53 0 90 -37t37 -90t-37 -90t-90 -37q-51 0 -89 36.5t-38 90.5zM715 1266q0 53 38 90t89 37q53 0 90 -37t37 -90t-37 -90t-90 -37q-51 0 -89 36.5t-38 90.5z" />
<glyph unicode="&#xfd;" horiz-adv-x="1181" d="M-35 -418q0 37 12.5 64.5t33 46t44 28t45.5 9.5l15 -13l75 -235l13 -10q88 0 140 60t83 142l123 326l-385 928l-150 41v55h512v-55l-145 -41l260 -688h12l260 688l-145 41v55h399v-55l-151 -41l-533 -1299q-31 -72 -68.5 -116.5t-78.5 -70.5t-82 -35t-78 -9 q-102 0 -156.5 55t-54.5 129zM543 1171l266 465q31 0 53.5 -5t44.5 -21q23 -16 32 -38t17 -52l-352 -392l-41 9z" />
<glyph unicode="&#xfe;" horiz-adv-x="1243" d="M70 1436v55l336 119l16 -15v-737h8q35 59 79 96t88 58.5t83 29t65 7.5q117 0 199 -44t133 -117t74 -164t23 -185q0 -117 -33 -219.5t-96.5 -179.5t-156.5 -121t-212 -44q-10 0 -36 2.5t-61.5 10.5t-76.5 24.5t-80 44.5v-428q0 -43 8 -71.5t35 -46t73 -25.5t124 -8l8 -17 l-8 -55h-568v72q78 0 113 33.5t35 121.5v1766zM422 240q29 -92 101.5 -140.5t164.5 -48.5q70 0 125 33t93 91t57.5 137t19.5 171q0 90 -19.5 169t-58.5 137.5t-99.5 92t-141.5 33.5q-25 0 -58 -7t-66.5 -23.5t-65.5 -44t-52 -70.5v-530z" />
<glyph unicode="&#xff;" horiz-adv-x="1181" d="M-35 -418q0 37 12.5 64.5t33 46t44 28t45.5 9.5l15 -13l75 -235l13 -10q88 0 140 60t83 142l123 326l-385 928l-150 41v55h512v-55l-145 -41l260 -688h12l260 688l-145 41v55h399v-55l-151 -41l-533 -1299q-31 -72 -68.5 -116.5t-78.5 -70.5t-82 -35t-78 -9 q-102 0 -156.5 55t-54.5 129zM334 1266q0 53 37.5 90t89.5 37q53 0 90 -37t37 -90t-37 -90t-90 -37q-51 0 -89 36.5t-38 90.5zM698 1266q0 53 38 90t89 37q53 0 90 -37t37 -90t-37 -90t-90 -37q-51 0 -89 36.5t-38 90.5z" />
<glyph unicode="&#x152;" horiz-adv-x="2002" d="M82 715q0 170 54 308t152.5 236.5t234.5 151.5t300 53q59 0 116.5 -8t111.5 -22h753l27 -19l-74 -303l-14 -10h-27q-14 135 -82.5 195.5t-197.5 60.5h-121q-102 0 -139 -38t-37 -108v-452h276q39 0 67.5 9t47 34.5t28 68.5t9.5 111h69v-494l-53 -8l-16 8q0 113 -38 153 t-114 40h-276v-461q0 -70 33.5 -107.5t121.5 -37.5h205q37 0 85 8t99.5 34.5t101.5 76t89 131.5l29 -7l8 -18l-82 -301h-770q-55 -14 -113.5 -22.5t-122.5 -8.5q-164 0 -300 53.5t-234.5 150.5t-152.5 234.5t-54 307.5zM303 715q0 -141 34 -262t99.5 -208t162.5 -137.5 t226 -50.5q61 0 121 13v1294q-59 12 -121 12q-129 0 -226 -50t-162.5 -139t-99.5 -210t-34 -262z" />
<glyph unicode="&#x153;" horiz-adv-x="1935" d="M70 508q0 113 35.5 212t103 173t166 116t221.5 42q152 0 262.5 -61.5t175.5 -166.5q39 59 88 101.5t104.5 70t111 41t106.5 13.5q111 0 189.5 -30t128.5 -82t75 -123t25 -155h-732q-4 -29 -6 -54t-2 -60q0 -123 43 -203t104.5 -126t129 -64.5t114.5 -18.5q98 0 183.5 36 t138.5 99l14 -6l17 -18q-61 -129 -172 -199t-252 -70q-125 0 -235.5 49.5t-180.5 157.5q-66 -98 -174.5 -153.5t-255.5 -55.5q-123 0 -221.5 41t-166 113t-103 169t-35.5 212zM272 510q0 -96 20.5 -180t61.5 -145.5t101.5 -97.5t140.5 -36t140.5 36t101.5 97.5t61.5 145.5 t20.5 180q0 94 -20.5 179t-61.5 147.5t-101.5 99.5t-140.5 37t-140.5 -37t-101.5 -99.5t-61.5 -147.5t-20.5 -179zM1145 739h512q0 123 -60.5 176.5t-152.5 53.5q-43 0 -90 -12.5t-89 -40t-75 -70.5t-45 -107z" />
<glyph unicode="&#x178;" horiz-adv-x="1359" d="M41 1376v58h582v-54l-127 -37q-35 -10 -49.5 -26.5t-14.5 -34.5q0 -27 17 -61l270 -553l305 559q10 20 14 33.5t4 23.5q0 20 -10 36.5t-39 25.5l-137 34v54h463v-52l-76 -28q-39 -16 -62.5 -52t-41.5 -67l-369 -641v-373q0 -35 8 -62.5t30.5 -46t60.5 -27.5t98 -9l8 -17 l-8 -59h-582v76q113 0 153 37t40 108v359l-345 651q-20 37 -45.5 70.5t-66.5 48.5zM408 1675q0 53 38 90t89 37q53 0 90 -36.5t37 -90.5q0 -53 -37 -90t-90 -37q-51 0 -89 37t-38 90zM772 1675q0 53 38 90t89 37q53 0 90 -36.5t37 -90.5q0 -53 -37 -90t-90 -37q-51 0 -89 37 t-38 90z" />
<glyph unicode="&#x2c6;" horiz-adv-x="841" d="M113 1171l249 463q27 10 60 11q31 0 57 -11l250 -463l-20 -34l-41 -9l-248 336l-246 -336l-41 9z" />
<glyph unicode="&#x2dc;" horiz-adv-x="1040" d="M113 1208q16 33 38.5 66t48 60.5t56.5 47t66 27.5q45 0 95 -14.5t99 -30.5t97.5 -30.5t91.5 -14.5q55 0 101 33.5t87 77.5l35 -25q-16 -37 -40 -74t-51.5 -67.5t-59.5 -53t-68 -30.5q-47 0 -96.5 14t-98.5 30.5t-96 31t-92 14.5q-51 0 -92 -24.5t-82 -65.5z" />
<glyph unicode="&#x2000;" horiz-adv-x="996" />
<glyph unicode="&#x2001;" horiz-adv-x="1993" />
<glyph unicode="&#x2002;" horiz-adv-x="996" />
<glyph unicode="&#x2003;" horiz-adv-x="1993" />
<glyph unicode="&#x2004;" horiz-adv-x="664" />
<glyph unicode="&#x2005;" horiz-adv-x="498" />
<glyph unicode="&#x2006;" horiz-adv-x="332" />
<glyph unicode="&#x2007;" horiz-adv-x="332" />
<glyph unicode="&#x2008;" horiz-adv-x="249" />
<glyph unicode="&#x2009;" horiz-adv-x="398" />
<glyph unicode="&#x200a;" horiz-adv-x="110" />
<glyph unicode="&#x2010;" horiz-adv-x="876" d="M113 475v121h651v-121h-651z" />
<glyph unicode="&#x2011;" horiz-adv-x="876" d="M113 475v121h651v-121h-651z" />
<glyph unicode="&#x2012;" horiz-adv-x="876" d="M113 475v121h651v-121h-651z" />
<glyph unicode="&#x2013;" horiz-adv-x="1429" d="M113 475v121h1204v-121h-1204z" />
<glyph unicode="&#x2014;" horiz-adv-x="2250" d="M113 475v121h2025v-121h-2025z" />
<glyph unicode="&#x2018;" horiz-adv-x="507" d="M113 1143q0 133 60 258t179 211l39 -47v-9q-88 -66 -136 -165t-38 -205q18 8 43 8q53 0 94 -40t41 -95t-41 -95t-94 -40q-41 0 -68.5 18.5t-45 49t-25.5 69.5t-8 82z" />
<glyph unicode="&#x2019;" horiz-adv-x="507" d="M113 1477q0 55 41 95t94 40q41 0 68.5 -18.5t45 -49.5t25.5 -69.5t8 -81.5q0 -133 -60.5 -258t-178.5 -211l-39 47v8q88 66 136 165t38 206q-18 -8 -43 -9q-53 0 -94 40t-41 96z" />
<glyph unicode="&#x201a;" horiz-adv-x="548" d="M133 111q0 55 41 95t94 40q41 0 69 -18.5t45 -49.5t25.5 -69.5t8.5 -81.5q0 -133 -60.5 -258t-179.5 -211l-39 47v8q88 66 136.5 165t37.5 206q-18 -8 -43 -9q-53 0 -94 40t-41 96z" />
<glyph unicode="&#x201c;" horiz-adv-x="911" d="M113 1143q0 133 60 258t179 211l39 -47v-9q-88 -66 -136 -165t-38 -205q18 8 43 8q53 0 94 -40t41 -95t-41 -95t-94 -40q-41 0 -68.5 18.5t-45 49t-25.5 69.5t-8 82zM516 1143q0 133 60.5 258t179.5 211l39 -47v-9q-88 -66 -136.5 -165t-37.5 -205q18 8 43 8q53 0 94 -40 t41 -95t-41 -95t-94 -40q-41 0 -69 18.5t-45.5 49t-25.5 69.5t-8 82z" />
<glyph unicode="&#x201d;" horiz-adv-x="911" d="M113 1477q0 55 41 95t94 40q41 0 68.5 -18.5t45 -49.5t25.5 -69.5t8 -81.5q0 -133 -60.5 -258t-178.5 -211l-39 47v8q88 66 136 165t38 206q-18 -8 -43 -9q-53 0 -94 40t-41 96zM516 1477q0 55 41 95t94 40q41 0 69 -18.5t45 -49.5t25.5 -69.5t8.5 -81.5 q0 -133 -60.5 -258t-179.5 -211l-39 47v8q88 66 136.5 165t37.5 206q-18 -8 -43 -9q-53 0 -94 40t-41 96z" />
<glyph unicode="&#x201e;" horiz-adv-x="952" d="M133 111q0 55 41 95t94 40q41 0 69 -18.5t45 -49.5t25.5 -69.5t8.5 -81.5q0 -133 -60.5 -258t-179.5 -211l-39 47v8q88 66 136.5 165t37.5 206q-18 -8 -43 -9q-53 0 -94 40t-41 96zM537 111q0 55 40.5 95t94.5 40q41 0 68.5 -18.5t45 -49.5t25.5 -69.5t8 -81.5 q0 -133 -60.5 -258t-178.5 -211l-39 47v8q88 66 136 165t38 206q-18 -8 -43 -9q-53 0 -94 40t-41 96z" />
<glyph unicode="&#x2022;" horiz-adv-x="698" d="M113 537q0 49 19.5 91t52 74.5t75.5 51t90 18.5q49 0 91 -18.5t75 -51t51.5 -74.5t18.5 -91t-18.5 -92.5t-51.5 -75t-75 -51t-91 -19.5q-47 0 -90 19.5t-75.5 51t-52 74.5t-19.5 93z" />
<glyph unicode="&#x2026;" horiz-adv-x="1613" d="M133 111q0 55 41 95t94 40q55 0 95 -40t40 -95t-40 -95.5t-95 -40.5q-53 0 -94 40t-41 96zM672 111q0 55 41 95t94 40q55 0 95 -40t40 -95t-40 -95.5t-95 -40.5q-53 0 -94 40t-41 96zM1210 111q0 55 41 95t95 40q55 0 95 -40t40 -95t-40 -95.5t-95 -40.5q-53 0 -94.5 40 t-41.5 96z" />
<glyph unicode="&#x202f;" horiz-adv-x="398" />
<glyph unicode="&#x2039;" horiz-adv-x="727" d="M113 528v23l442 489l43 -53l6 -29l-323 -417l323 -437l-6 -26l-57 -47z" />
<glyph unicode="&#x203a;" horiz-adv-x="727" d="M123 104l323 437l-323 417l6 29l43 53l442 -489v-23l-428 -497l-57 47z" />
<glyph unicode="&#x205f;" horiz-adv-x="498" />
<glyph unicode="&#x20ac;" horiz-adv-x="1554" d="M20 514l21 90h162q-6 53 -6 111.5t6 111.5h-183l21 91h178q31 137 103.5 239.5t175 171t231.5 102t275 33.5q33 0 77.5 -4t90 -10t85 -10t66.5 -4q43 0 69.5 8t41.5 18l16 -18l-72 -326l-14 -10h-27q-8 70 -41.5 120t-85 82.5t-115 48t-132.5 15.5q-201 0 -339.5 -120.5 t-185.5 -335.5h756l-20 -91h-750q-6 -53 -6 -111.5t6 -111.5h770l-20 -90h-736q25 -104 73 -188t115.5 -141.5t153.5 -88t187 -30.5q51 0 114.5 7t128 32.5t125 79t105.5 145.5l35 -15l8 -18l-68 -256q-29 -16 -79 -28.5t-107.5 -22.5t-115.5 -15.5t-103 -5.5 q-147 0 -277.5 34t-234 101.5t-176 170t-103.5 239.5h-199z" />
<glyph unicode="&#x2122;" horiz-adv-x="1198" d="M113 1333l14 101h367l12 -101l-2 -6l-12 -2q-10 23 -28 37t-38 23.5t-40.5 12.5t-37.5 3v-291q0 -20 12.5 -31.5t53.5 -11.5l2 -6l-2 -19h-209v25q41 0 53 11.5t12 31.5v291q-16 0 -36.5 -3t-41 -12.5t-39 -23.5t-26.5 -37l-12 2zM524 1042v25q35 0 45.5 10t12.5 29 l18 266q0 16 -11 26.5t-46 10.5v25h151l115 -279l111 279h145v-25q-35 0 -46 -10t-11 -31l18 -262q2 -18 12.5 -28.5t44.5 -10.5l2 -6l-2 -19h-198v25q39 0 51 10t12 29l-20 258l-135 -322h-11l-145 324l-19 -260q-2 -18 10.5 -28.5t51.5 -10.5l2 -6l-2 -19h-156z" />
<glyph unicode="&#x25fc;" horiz-adv-x="1024" d="M0 0v1024h1024v-1024h-1024z" />
</font>
</defs>
</svg>
